%FSLAX35Y35*%
%MOIN*%
G04 2=Kupferunten/CopperbottomL2(X.Bot)*
%ADD10C,0.00591*%
%ADD11C,0.00256*%
%ADD12C,0.00295*%
%ADD13C,0.00472*%
%ADD14C,0.00512*%
%ADD15C,0.00600*%
%ADD16C,0.00768*%
%ADD17C,0.00787*%
%ADD18C,0.01024*%
%ADD19C,0.01181*%
%ADD20C,0.01575*%
%ADD21C,0.01969*%
%ADD22C,0.02362*%
%ADD23C,0.07874*%
%AMR_24*21,1,0.00787,0.00787,0,0,0.000*%
%ADD24R_24*%
%AMR_25*21,1,0.02100,0.02100,0,0,0.000*%
%ADD25R_25*%
%AMR_26*21,1,0.02625,0.02625,0,0,0.000*%
%ADD26R_26*%
%AMR_27*21,1,0.05000,0.05000,0,0,270.000*%
%ADD27R_27*%
%AMR_28*21,1,0.07087,0.07087,0,0,0.000*%
%ADD28R_28*%
%AMOCT_29*4,1,8,0.023622,0.011811,0.011811,0.023622,-0.011811,0.023622,-0.023622,0.011811,-0.023622,-0.011811,-0.011811,-0.023622,0.011811,-0.023622,0.023622,-0.011811,0.023622,0.011811,0.000*%
%ADD29OCT_29*%
%AMOCT_30*4,1,8,0.035433,0.017717,0.017717,0.035433,-0.017717,0.035433,-0.035433,0.017717,-0.035433,-0.017717,-0.017717,-0.035433,0.017717,-0.035433,0.035433,-0.017717,0.035433,0.017717,0.000*%
%ADD30OCT_30*%
%AMOCT_31*4,1,8,0.035433,0.017717,0.017717,0.035433,-0.017717,0.035433,-0.035433,0.017717,-0.035433,-0.017717,-0.017717,-0.035433,0.017717,-0.035433,0.035433,-0.017717,0.035433,0.017717,180.000*%
%ADD31OCT_31*%
%AMOCT_32*4,1,8,0.045276,0.022638,0.022638,0.045276,-0.022638,0.045276,-0.045276,0.022638,-0.045276,-0.022638,-0.022638,-0.045276,0.022638,-0.045276,0.045276,-0.022638,0.045276,0.022638,90.000*%
%ADD32OCT_32*%
%AMOCT_33*4,1,8,0.078740,0.012500,0.066240,0.025000,-0.066240,0.025000,-0.078740,0.012500,-0.078740,-0.012500,-0.066240,-0.025000,0.066240,-0.025000,0.078740,-0.012500,0.078740,0.012500,0.000*%
%ADD33OCT_33*%
%AMOCT_34*4,1,8,0.078740,0.014764,0.063976,0.029528,-0.063976,0.029528,-0.078740,0.014764,-0.078740,-0.014764,-0.063976,-0.029528,0.063976,-0.029528,0.078740,-0.014764,0.078740,0.014764,0.000*%
%ADD34OCT_34*%
G54D21*
X159438Y30068D02*
X185688Y56318D01*
X185688Y73818D01*
X196938Y85068D01*
X118188Y58818D02*
X118188Y41318D01*
X129438Y30068D01*
X159438Y30068D01*
X21332Y8070D02*
X112885Y8070D01*
X24299Y11220D02*
X114564Y11220D01*
X25992Y14370D02*
X152203Y14370D01*
X26793Y17519D02*
X153007Y17519D01*
X26952Y20669D02*
X162823Y20669D01*
X26362Y23818D02*
X156198Y23818D01*
X162679Y23818D02*
X163676Y23818D01*
X213370Y23818D02*
X213956Y23818D01*
X25058Y26968D02*
X153048Y26968D01*
X165829Y26968D02*
X173048Y26968D01*
X212066Y26968D02*
X213956Y26968D01*
X22685Y30118D02*
X152942Y30118D01*
X165935Y30118D02*
X172942Y30118D01*
X209693Y30118D02*
X213956Y30118D01*
X4921Y33267D02*
X6377Y33267D01*
X17992Y33267D02*
X153147Y33267D01*
X165730Y33267D02*
X173147Y33267D01*
X205000Y33267D02*
X213956Y33267D01*
X4921Y36417D02*
X156296Y36417D01*
X162581Y36417D02*
X176296Y36417D01*
X182581Y36417D02*
X188833Y36417D01*
X197741Y36417D02*
X213956Y36417D01*
X4921Y39566D02*
X191982Y39566D01*
X200088Y39566D02*
X213956Y39566D01*
X4921Y42716D02*
X193789Y42716D01*
X200088Y42716D02*
X213956Y42716D01*
X4921Y45866D02*
X193789Y45866D01*
X200088Y45866D02*
X213956Y45866D01*
X4921Y49015D02*
X193789Y49015D01*
X200088Y49015D02*
X213956Y49015D01*
X4921Y52165D02*
X193789Y52165D01*
X200088Y52165D02*
X213956Y52165D01*
X4921Y55314D02*
X112480Y55314D01*
X133062Y55314D02*
X133315Y55314D01*
X143062Y55314D02*
X143315Y55314D01*
X153062Y55314D02*
X193789Y55314D01*
X200088Y55314D02*
X213956Y55314D01*
X4921Y58464D02*
X112480Y58464D01*
X153897Y58464D02*
X193689Y58464D01*
X200188Y58464D02*
X213956Y58464D01*
X4921Y61614D02*
X112480Y61614D01*
X153770Y61614D02*
X190540Y61614D01*
X203337Y61614D02*
X213956Y61614D01*
X4921Y64763D02*
X113866Y64763D01*
X152511Y64763D02*
X190246Y64763D01*
X203631Y64763D02*
X213956Y64763D01*
X4921Y67913D02*
X112480Y67913D01*
X153897Y67913D02*
X190246Y67913D01*
X203631Y67913D02*
X213956Y67913D01*
X4921Y71062D02*
X112480Y71062D01*
X153897Y71062D02*
X193079Y71062D01*
X200798Y71062D02*
X213956Y71062D01*
X4921Y74212D02*
X114842Y74212D01*
X131535Y74212D02*
X134842Y74212D01*
X141535Y74212D02*
X145205Y74212D01*
X151172Y74212D02*
X213956Y74212D01*
X4921Y77362D02*
X114842Y77362D01*
X131535Y77362D02*
X134842Y77362D01*
X141535Y77362D02*
X213956Y77362D01*
X4921Y80511D02*
X114263Y80511D01*
X131535Y80511D02*
X134842Y80511D01*
X141535Y80511D02*
X191642Y80511D01*
X202235Y80511D02*
X213956Y80511D01*
X4921Y83661D02*
X109240Y83661D01*
X131535Y83661D02*
X134842Y83661D01*
X141535Y83661D02*
X190246Y83661D01*
X203631Y83661D02*
X213956Y83661D01*
X4921Y86811D02*
X107411Y86811D01*
X131179Y86811D02*
X134842Y86811D01*
X141535Y86811D02*
X190246Y86811D01*
X203631Y86811D02*
X213956Y86811D01*
X4921Y89960D02*
X34191Y89960D01*
X39686Y89960D02*
X107725Y89960D01*
X128029Y89960D02*
X134842Y89960D01*
X141535Y89960D02*
X191977Y89960D01*
X201900Y89960D02*
X213956Y89960D01*
X4921Y93110D02*
X32411Y93110D01*
X124880Y93110D02*
X132915Y93110D01*
X141535Y93110D02*
X213956Y93110D01*
X4921Y96259D02*
X32774Y96259D01*
X121730Y96259D02*
X129765Y96259D01*
X139230Y96259D02*
X213956Y96259D01*
X4921Y99409D02*
X126615Y99409D01*
X136081Y99409D02*
X213956Y99409D01*
X4921Y102559D02*
X32843Y102559D01*
X132931Y102559D02*
X213956Y102559D01*
X4921Y105708D02*
X32411Y105708D01*
X129781Y105708D02*
X213956Y105708D01*
X4921Y108858D02*
X34122Y108858D01*
X39755Y108858D02*
X213956Y108858D01*
X4921Y112007D02*
X213956Y112007D01*
X19590Y115157D02*
X191787Y115157D01*
X206598Y115157D02*
X213956Y115157D01*
X23367Y118307D02*
X188010Y118307D01*
X210375Y118307D02*
X213956Y118307D01*
X25453Y121456D02*
X185924Y121456D01*
X212461Y121456D02*
X213956Y121456D01*
X26593Y124606D02*
X184784Y124606D01*
X213601Y124606D02*
X213956Y124606D01*
X26950Y127755D02*
X184427Y127755D01*
X26680Y130905D02*
X184697Y130905D01*
X25633Y134055D02*
X185744Y134055D01*
X23708Y137204D02*
X187669Y137204D01*
X20203Y140354D02*
X191174Y140354D01*
X8070Y33868D02*
X8070Y113769D01*
X11220Y34452D02*
X11220Y113184D01*
X14370Y4921D02*
X14370Y5079D01*
X14370Y34290D02*
X14370Y113347D01*
X14370Y142558D02*
X14370Y142716D01*
X17519Y4921D02*
X17519Y5886D01*
X17519Y33483D02*
X17519Y114153D01*
X17519Y141751D02*
X17519Y142716D01*
X20669Y4921D02*
X20669Y7582D01*
X20669Y31787D02*
X20669Y115850D01*
X20669Y140054D02*
X20669Y142716D01*
X23818Y4921D02*
X23818Y10559D01*
X23818Y28810D02*
X23818Y118827D01*
X23818Y137077D02*
X23818Y142716D01*
X26968Y4921D02*
X26968Y142716D01*
X30118Y4921D02*
X30118Y142716D01*
X33267Y4921D02*
X33267Y90884D01*
X33267Y96753D02*
X33267Y102134D01*
X33267Y108003D02*
X33267Y142716D01*
X36417Y4921D02*
X36417Y89291D01*
X36417Y98346D02*
X36417Y100541D01*
X36417Y109596D02*
X36417Y142716D01*
X39566Y4921D02*
X39566Y89841D01*
X39566Y97796D02*
X39566Y101091D01*
X39566Y109046D02*
X39566Y142716D01*
X42716Y4921D02*
X42716Y90472D01*
X42716Y97165D02*
X42716Y101722D01*
X42716Y108415D02*
X42716Y142716D01*
X45866Y4921D02*
X45866Y90472D01*
X45866Y97165D02*
X45866Y101722D01*
X45866Y108415D02*
X45866Y142716D01*
X49015Y4921D02*
X49015Y90472D01*
X49015Y97165D02*
X49015Y101722D01*
X49015Y108415D02*
X49015Y142716D01*
X52165Y4921D02*
X52165Y90472D01*
X52165Y97165D02*
X52165Y101722D01*
X52165Y108415D02*
X52165Y142716D01*
X55314Y4921D02*
X55314Y90472D01*
X55314Y97165D02*
X55314Y101722D01*
X55314Y108415D02*
X55314Y142716D01*
X58464Y4921D02*
X58464Y90472D01*
X58464Y97165D02*
X58464Y101722D01*
X58464Y108415D02*
X58464Y142716D01*
X61614Y4921D02*
X61614Y90472D01*
X61614Y97165D02*
X61614Y101722D01*
X61614Y108415D02*
X61614Y142716D01*
X64763Y4921D02*
X64763Y90472D01*
X64763Y97165D02*
X64763Y101722D01*
X64763Y108415D02*
X64763Y142716D01*
X67913Y4921D02*
X67913Y90472D01*
X67913Y97165D02*
X67913Y101722D01*
X67913Y108415D02*
X67913Y142716D01*
X71062Y4921D02*
X71062Y90472D01*
X71062Y97165D02*
X71062Y101722D01*
X71062Y108415D02*
X71062Y142716D01*
X74212Y4921D02*
X74212Y90472D01*
X74212Y97165D02*
X74212Y101722D01*
X74212Y108415D02*
X74212Y142716D01*
X77362Y4921D02*
X77362Y90472D01*
X77362Y97165D02*
X77362Y101722D01*
X77362Y108415D02*
X77362Y142716D01*
X80511Y4921D02*
X80511Y90472D01*
X80511Y97165D02*
X80511Y101722D01*
X80511Y108415D02*
X80511Y142716D01*
X83661Y4921D02*
X83661Y90472D01*
X83661Y97165D02*
X83661Y101722D01*
X83661Y108415D02*
X83661Y142716D01*
X86811Y4921D02*
X86811Y90472D01*
X86811Y97165D02*
X86811Y101722D01*
X86811Y108415D02*
X86811Y142716D01*
X89960Y4921D02*
X89960Y90472D01*
X89960Y97165D02*
X89960Y101722D01*
X89960Y108415D02*
X89960Y142716D01*
X93110Y4921D02*
X93110Y90472D01*
X93110Y97165D02*
X93110Y101722D01*
X93110Y108415D02*
X93110Y142716D01*
X96259Y4921D02*
X96259Y90472D01*
X96259Y97165D02*
X96259Y101722D01*
X96259Y108415D02*
X96259Y142716D01*
X99409Y4921D02*
X99409Y90472D01*
X99409Y97165D02*
X99409Y101722D01*
X99409Y108415D02*
X99409Y142716D01*
X102559Y4921D02*
X102559Y90472D01*
X102559Y97165D02*
X102559Y101722D01*
X102559Y108415D02*
X102559Y142716D01*
X105708Y4921D02*
X105708Y90472D01*
X105708Y97165D02*
X105708Y101722D01*
X105708Y108415D02*
X105708Y142716D01*
X108858Y4921D02*
X108858Y84044D01*
X108858Y97165D02*
X108858Y101722D01*
X108858Y108415D02*
X108858Y142716D01*
X112007Y4921D02*
X112007Y82767D01*
X112007Y97165D02*
X112007Y101722D01*
X112007Y108415D02*
X112007Y142716D01*
X115157Y11272D02*
X115157Y53110D01*
X115157Y97165D02*
X115157Y101722D01*
X115157Y108415D02*
X115157Y142716D01*
X118307Y11272D02*
X118307Y53110D01*
X118307Y97165D02*
X118307Y101722D01*
X118307Y108415D02*
X118307Y142716D01*
X121456Y11272D02*
X121456Y53110D01*
X121456Y96533D02*
X121456Y101722D01*
X121456Y108415D02*
X121456Y142716D01*
X124606Y11272D02*
X124606Y54024D01*
X124606Y93384D02*
X124606Y101418D01*
X124606Y108415D02*
X124606Y142716D01*
X127755Y11272D02*
X127755Y53110D01*
X127755Y90234D02*
X127755Y98269D01*
X127755Y107734D02*
X127755Y142716D01*
X130905Y11272D02*
X130905Y53158D01*
X130905Y87084D02*
X130905Y95119D01*
X130905Y104584D02*
X130905Y142716D01*
X134055Y11272D02*
X134055Y54575D01*
X134055Y73062D02*
X134055Y91970D01*
X134055Y101435D02*
X134055Y142716D01*
X137204Y11272D02*
X137204Y53110D01*
X137204Y98285D02*
X137204Y142716D01*
X140354Y11272D02*
X140354Y53110D01*
X140354Y95136D02*
X140354Y142716D01*
X143503Y11272D02*
X143503Y55126D01*
X143503Y72511D02*
X143503Y142716D01*
X146653Y11272D02*
X146653Y53110D01*
X146653Y74527D02*
X146653Y142716D01*
X149803Y11272D02*
X149803Y53110D01*
X149803Y74527D02*
X149803Y142716D01*
X152952Y17464D02*
X152952Y27064D01*
X152952Y33073D02*
X152952Y55205D01*
X152952Y62432D02*
X152952Y65205D01*
X152952Y72432D02*
X152952Y142716D01*
X156102Y17984D02*
X156102Y23914D01*
X156102Y36223D02*
X156102Y142716D01*
X159251Y17984D02*
X159251Y23572D01*
X159251Y36564D02*
X159251Y142716D01*
X162401Y17984D02*
X162401Y23572D01*
X162401Y36564D02*
X162401Y142716D01*
X165551Y24234D02*
X165551Y26690D01*
X165551Y33447D02*
X165551Y142716D01*
X168700Y24234D02*
X168700Y142716D01*
X171850Y24234D02*
X171850Y142716D01*
X174999Y24234D02*
X174999Y25017D01*
X174999Y35120D02*
X174999Y142716D01*
X178149Y36564D02*
X178149Y142716D01*
X181299Y36564D02*
X181299Y142716D01*
X184448Y34549D02*
X184448Y126730D01*
X184448Y129174D02*
X184448Y142716D01*
X187598Y35182D02*
X187598Y118782D01*
X187598Y137123D02*
X187598Y142716D01*
X190748Y38332D02*
X190748Y61406D01*
X190748Y68731D02*
X190748Y81406D01*
X190748Y88731D02*
X190748Y115825D01*
X190748Y140080D02*
X190748Y142716D01*
X193897Y71761D02*
X193897Y78375D01*
X193897Y91761D02*
X193897Y114135D01*
X193897Y141769D02*
X193897Y142716D01*
X197047Y34296D02*
X197047Y35722D01*
X197047Y71761D02*
X197047Y78375D01*
X197047Y91761D02*
X197047Y113341D01*
X197047Y142564D02*
X197047Y142716D01*
X200196Y34452D02*
X200196Y58473D01*
X200196Y71664D02*
X200196Y78473D01*
X200196Y91664D02*
X200196Y113184D01*
X203346Y33856D02*
X203346Y61622D01*
X203346Y68515D02*
X203346Y81622D01*
X203346Y88515D02*
X203346Y113780D01*
X206496Y32546D02*
X206496Y115091D01*
X209645Y30168D02*
X209645Y117469D01*
X212795Y25449D02*
X212795Y122187D01*
X112885Y9542D02*
X114615Y11272D01*
X152203Y11272D01*
X152203Y16715D01*
X153472Y17984D01*
X162823Y17984D01*
X162823Y22965D01*
X164092Y24234D01*
X175782Y24234D01*
X172942Y27074D01*
X172942Y33063D01*
X176444Y36564D01*
X182433Y36564D01*
X185707Y33291D01*
X193789Y41373D01*
X193789Y58375D01*
X193778Y58375D01*
X190246Y61908D01*
X190246Y68229D01*
X193778Y71761D01*
X200099Y71761D01*
X203631Y68229D01*
X203631Y61908D01*
X200099Y58375D01*
X200088Y58375D01*
X200088Y38764D01*
X195240Y33915D01*
X196045Y34152D01*
X198136Y34452D01*
X200249Y34452D01*
X202340Y34152D01*
X204366Y33557D01*
X206288Y32679D01*
X208065Y31537D01*
X209662Y30154D01*
X211045Y28557D01*
X212187Y26780D01*
X213065Y24859D01*
X213660Y22832D01*
X213956Y20770D01*
X213956Y126867D01*
X213660Y124805D01*
X213065Y122778D01*
X212187Y120857D01*
X211045Y119080D01*
X209662Y117483D01*
X208065Y116100D01*
X206288Y114958D01*
X204366Y114080D01*
X202340Y113485D01*
X200249Y113184D01*
X198136Y113184D01*
X196045Y113485D01*
X194018Y114080D01*
X192097Y114958D01*
X190320Y116100D01*
X188723Y117483D01*
X187340Y119080D01*
X186198Y120857D01*
X185320Y122778D01*
X184725Y124805D01*
X184424Y126898D01*
X184426Y127294D01*
X184422Y127309D01*
X184429Y127952D01*
X184422Y128596D01*
X184426Y128610D01*
X184424Y129006D01*
X184725Y131099D01*
X185320Y133126D01*
X186198Y135048D01*
X187340Y136825D01*
X188723Y138421D01*
X190320Y139805D01*
X192097Y140947D01*
X194018Y141824D01*
X196045Y142420D01*
X198107Y142716D01*
X13270Y142716D01*
X15332Y142420D01*
X17359Y141824D01*
X19280Y140947D01*
X21057Y139805D01*
X22654Y138421D01*
X24037Y136825D01*
X25179Y135048D01*
X26057Y133126D01*
X26652Y131099D01*
X26953Y129006D01*
X26951Y128610D01*
X26955Y128596D01*
X26948Y127952D01*
X26955Y127309D01*
X26951Y127294D01*
X26953Y126898D01*
X26652Y124805D01*
X26057Y122778D01*
X25179Y120857D01*
X24037Y119080D01*
X22654Y117483D01*
X21057Y116100D01*
X19280Y114958D01*
X17359Y114080D01*
X15332Y113485D01*
X13241Y113184D01*
X11128Y113184D01*
X9037Y113485D01*
X7010Y114080D01*
X5089Y114958D01*
X4921Y115066D01*
X4921Y32571D01*
X5089Y32679D01*
X7010Y33557D01*
X9037Y34152D01*
X11128Y34452D01*
X13241Y34452D01*
X15332Y34152D01*
X17359Y33557D01*
X19280Y32679D01*
X21057Y31537D01*
X22654Y30154D01*
X24037Y28557D01*
X25179Y26780D01*
X26057Y24859D01*
X26652Y22832D01*
X26953Y20739D01*
X26951Y20343D01*
X26955Y20328D01*
X26948Y19685D01*
X26955Y19041D01*
X26951Y19026D01*
X26953Y18630D01*
X26652Y16537D01*
X26057Y14511D01*
X25179Y12589D01*
X24037Y10812D01*
X22654Y9215D01*
X21057Y7832D01*
X19280Y6690D01*
X17359Y5812D01*
X15332Y5217D01*
X13270Y4921D01*
X112885Y4921D01*
X112885Y9542D01*
X156444Y23572D02*
X152942Y27074D01*
X152942Y33063D01*
X156444Y36564D01*
X162433Y36564D01*
X165935Y33063D01*
X165935Y27074D01*
X162433Y23572D01*
X156444Y23572D01*
X193778Y78375D02*
X190246Y81908D01*
X190246Y88229D01*
X193778Y91761D01*
X200099Y91761D01*
X203631Y88229D01*
X203631Y81908D01*
X200099Y78375D01*
X193778Y78375D01*
X113748Y53110D02*
X112480Y54378D01*
X112480Y63259D01*
X113748Y64527D01*
X114103Y64527D01*
X112480Y66150D01*
X112480Y71487D01*
X114842Y73849D01*
X114842Y79932D01*
X111733Y83041D01*
X109860Y83041D01*
X107411Y85490D01*
X107411Y89646D01*
X108236Y90472D01*
X40198Y90472D01*
X39016Y89291D01*
X34860Y89291D01*
X32411Y91740D01*
X32411Y95896D01*
X34860Y98346D01*
X39016Y98346D01*
X40198Y97165D01*
X120825Y97165D01*
X131535Y86455D01*
X131535Y73849D01*
X133188Y72196D01*
X134842Y73849D01*
X134842Y91182D01*
X124302Y101722D01*
X40198Y101722D01*
X39016Y100541D01*
X34860Y100541D01*
X32411Y102990D01*
X32411Y107146D01*
X34860Y109596D01*
X39016Y109596D01*
X40198Y108415D01*
X127075Y108415D01*
X141535Y93955D01*
X141535Y73849D01*
X143188Y72196D01*
X145520Y74527D01*
X150857Y74527D01*
X153897Y71487D01*
X153897Y66150D01*
X151566Y63818D01*
X153897Y61487D01*
X153897Y56150D01*
X150857Y53110D01*
X145520Y53110D01*
X143188Y55441D01*
X140857Y53110D01*
X135520Y53110D01*
X133188Y55441D01*
X130857Y53110D01*
X125520Y53110D01*
X123897Y54733D01*
X123897Y54378D01*
X122629Y53110D01*
X113748Y53110D01*
X196938Y65068D02*
X196938Y40068D01*
X186938Y30068D01*
X179438Y30068D01*
G54D22*
X138188Y68818D02*
X138188Y92568D01*
X125688Y105068D01*
X36938Y105068D01*
X128188Y68818D02*
X128188Y85068D01*
X119438Y93818D01*
X36938Y93818D01*
X118188Y68818D02*
X118188Y81318D01*
X111938Y87568D01*
G54D28*
X118188Y58818D03*
G54D29*
X36938Y105068D03*
X36938Y93818D03*
X111938Y87568D03*
G54D30*
X118188Y68818D03*
X128188Y58818D03*
X128188Y68818D03*
X138188Y58818D03*
X138188Y68818D03*
X148188Y58818D03*
X148188Y68818D03*
G54D31*
X179438Y30068D03*
X159438Y30068D03*
G54D32*
X196938Y65068D03*
X196938Y85068D03*
G36*
X187755Y3818D02*
X187755Y3818D01*
X187755Y7992D01*
X184527Y7992D01*
X184527Y7283D01*
X186889Y7283D01*
X186889Y6377D01*
X184685Y6377D01*
X184685Y5669D01*
X186889Y5669D01*
X186889Y4527D01*
X184448Y4527D01*
X184448Y3818D01*
X187755Y3818D01*
G37*
G36*
X183976Y5157D02*
X183976Y5157D01*
X183149Y5236D01*
X183031Y4881D01*
X182834Y4645D01*
X182559Y4488D01*
X182165Y4448D01*
X181811Y4488D01*
X181535Y4606D01*
X181338Y4803D01*
X181299Y5000D01*
X181338Y5157D01*
X181377Y5275D01*
X181496Y5354D01*
X181692Y5433D01*
X181811Y5472D01*
X181968Y5511D01*
X182165Y5551D01*
X182401Y5629D01*
X182755Y5708D01*
X183031Y5826D01*
X183228Y5944D01*
X183425Y6062D01*
X183582Y6220D01*
X183700Y6417D01*
X183779Y6653D01*
X183818Y6889D01*
X183779Y7204D01*
X183622Y7480D01*
X183385Y7755D01*
X183110Y7913D01*
X182716Y8031D01*
X182244Y8070D01*
X181850Y8031D01*
X181535Y7992D01*
X181259Y7874D01*
X181023Y7716D01*
X180826Y7519D01*
X180708Y7322D01*
X180629Y7086D01*
X180590Y6811D01*
X181417Y6771D01*
X181496Y7047D01*
X181653Y7204D01*
X181889Y7322D01*
X182204Y7362D01*
X182559Y7322D01*
X182795Y7204D01*
X182913Y7086D01*
X182952Y6968D01*
X182913Y6811D01*
X182834Y6692D01*
X182716Y6653D01*
X182559Y6574D01*
X182322Y6496D01*
X182007Y6417D01*
X181732Y6338D01*
X181456Y6259D01*
X181259Y6181D01*
X181062Y6102D01*
X180826Y5944D01*
X180590Y5708D01*
X180472Y5393D01*
X180433Y5039D01*
X180472Y4685D01*
X180629Y4370D01*
X180905Y4094D01*
X181220Y3897D01*
X181653Y3779D01*
X182165Y3740D01*
X182559Y3779D01*
X182913Y3818D01*
X183188Y3937D01*
X183464Y4094D01*
X183661Y4291D01*
X183779Y4527D01*
X183897Y4842D01*
X183976Y5157D01*
X183976Y5157D01*
G37*
G36*
X177401Y7952D02*
X179724Y7992D01*
X177637Y7992D01*
X177401Y7952D01*
G37*
G36*
X177244Y7913D02*
X179724Y7992D01*
X177401Y7952D01*
X177244Y7913D01*
G37*
G36*
X176929Y7795D02*
X179724Y7992D01*
X177244Y7913D01*
X176929Y7795D01*
G37*
G36*
X176614Y7519D02*
X179724Y7992D01*
X176929Y7795D01*
X176614Y7519D01*
G37*
G36*
X177874Y7283D02*
X179724Y7992D01*
X176614Y7519D01*
X177874Y7283D01*
G37*
G36*
X178858Y7283D02*
X179724Y7992D01*
X177874Y7283D01*
X178858Y7283D01*
G37*
G36*
X177755Y7244D02*
X177874Y7283D01*
X176614Y7519D01*
X177755Y7244D01*
G37*
G36*
X177559Y7204D02*
X177755Y7244D01*
X176614Y7519D01*
X177559Y7204D01*
G37*
G36*
X176456Y7165D02*
X177559Y7204D01*
X176614Y7519D01*
X176456Y7165D01*
G37*
G36*
X177401Y7047D02*
X177559Y7204D01*
X176456Y7165D01*
X177401Y7047D01*
G37*
G36*
X177283Y6889D02*
X177401Y7047D01*
X176456Y7165D01*
X177283Y6889D01*
G37*
G36*
X176377Y6692D02*
X177283Y6889D01*
X176456Y7165D01*
X176377Y6692D01*
G37*
G36*
X177244Y6692D02*
X177283Y6889D01*
X176377Y6692D01*
X177244Y6692D01*
G37*
G36*
X177283Y6535D02*
X177244Y6692D01*
X176377Y6692D01*
X177283Y6535D01*
G37*
G36*
X177362Y6377D02*
X177283Y6535D01*
X176377Y6692D01*
X177362Y6377D01*
G37*
G36*
X176417Y6338D02*
X177362Y6377D01*
X176377Y6692D01*
X176417Y6338D01*
G37*
G36*
X177480Y6259D02*
X177362Y6377D01*
X176417Y6338D01*
X177480Y6259D01*
G37*
G36*
X177637Y6181D02*
X177480Y6259D01*
X176417Y6338D01*
X177637Y6181D01*
G37*
G36*
X177755Y6141D02*
X177637Y6181D01*
X176417Y6338D01*
X177755Y6141D01*
G37*
G36*
X177913Y6102D02*
X177755Y6141D01*
X176417Y6338D01*
X177913Y6102D01*
G37*
G36*
X178858Y6102D02*
X179724Y7992D01*
X178858Y7283D01*
X178858Y6102D01*
G37*
G36*
X176535Y6062D02*
X177913Y6102D01*
X176417Y6338D01*
X176535Y6062D01*
G37*
G36*
X176535Y6062D02*
X178858Y6102D01*
X177913Y6102D01*
X176535Y6062D01*
G37*
G36*
X176692Y5826D02*
X178858Y6102D01*
X176535Y6062D01*
X176692Y5826D01*
G37*
G36*
X176889Y5629D02*
X178858Y6102D01*
X176692Y5826D01*
X176889Y5629D01*
G37*
G36*
X177125Y5511D02*
X178858Y6102D01*
X176889Y5629D01*
X177125Y5511D01*
G37*
G36*
X177362Y5433D02*
X178858Y6102D01*
X177125Y5511D01*
X177362Y5433D01*
G37*
G36*
X177755Y5393D02*
X178858Y6102D01*
X177362Y5433D01*
X177755Y5393D01*
G37*
G36*
X178858Y5393D02*
X178858Y6102D01*
X177755Y5393D01*
X178858Y5393D01*
G37*
G36*
X178858Y5393D02*
X179724Y7992D01*
X178858Y6102D01*
X178858Y5393D01*
G37*
G36*
X178858Y3818D02*
X179724Y7992D01*
X178858Y5393D01*
X178858Y3818D01*
G37*
G36*
X179724Y3818D02*
X179724Y7992D01*
X178858Y3818D01*
X179724Y3818D01*
G37*
G36*
X172913Y5354D02*
X172913Y5354D01*
X172086Y5118D01*
X172204Y4803D01*
X172362Y4488D01*
X172519Y4251D01*
X172716Y4094D01*
X172992Y3937D01*
X173267Y3818D01*
X173543Y3740D01*
X173897Y3740D01*
X174291Y3779D01*
X174685Y3897D01*
X175000Y4055D01*
X175314Y4291D01*
X175551Y4606D01*
X175708Y5000D01*
X175826Y5393D01*
X175866Y5866D01*
X175826Y6377D01*
X175708Y6811D01*
X175551Y7165D01*
X175314Y7480D01*
X175000Y7755D01*
X174685Y7913D01*
X174291Y8031D01*
X173858Y8070D01*
X173464Y8031D01*
X173149Y7952D01*
X172834Y7795D01*
X172559Y7598D01*
X172322Y7283D01*
X172125Y6811D01*
X172952Y6653D01*
X173070Y6929D01*
X173267Y7165D01*
X173543Y7322D01*
X173897Y7362D01*
X174133Y7322D01*
X174330Y7283D01*
X174527Y7165D01*
X174685Y7007D01*
X174842Y6811D01*
X174921Y6574D01*
X174960Y6259D01*
X175000Y5944D01*
X174960Y5551D01*
X174921Y5236D01*
X174842Y5000D01*
X174685Y4803D01*
X174527Y4645D01*
X174330Y4527D01*
X174133Y4448D01*
X173897Y4448D01*
X173582Y4488D01*
X173267Y4645D01*
X173070Y4960D01*
X172913Y5354D01*
X172913Y5354D01*
G37*
G36*
X171535Y4921D02*
X171535Y4921D01*
X170748Y5039D01*
X170669Y4763D01*
X170551Y4566D01*
X170354Y4448D01*
X170118Y4409D01*
X169881Y4448D01*
X169685Y4606D01*
X169566Y4842D01*
X169527Y5118D01*
X169566Y5393D01*
X169685Y5590D01*
X169881Y5748D01*
X170078Y5787D01*
X170472Y5708D01*
X170393Y6417D01*
X170118Y6456D01*
X169881Y6535D01*
X169763Y6692D01*
X169724Y6929D01*
X169763Y7086D01*
X169842Y7244D01*
X170000Y7322D01*
X170196Y7362D01*
X170354Y7322D01*
X170551Y7244D01*
X170629Y7086D01*
X170708Y6850D01*
X171456Y6968D01*
X171338Y7283D01*
X171220Y7559D01*
X171023Y7755D01*
X170787Y7913D01*
X170472Y7992D01*
X170118Y8031D01*
X169842Y7992D01*
X169566Y7952D01*
X169370Y7834D01*
X169173Y7677D01*
X168937Y7322D01*
X168858Y6968D01*
X168897Y6732D01*
X169015Y6496D01*
X169212Y6299D01*
X169488Y6102D01*
X169173Y5984D01*
X168897Y5748D01*
X168700Y5433D01*
X168661Y5078D01*
X168700Y4803D01*
X168779Y4566D01*
X168897Y4330D01*
X169094Y4133D01*
X169291Y3976D01*
X169527Y3818D01*
X169803Y3779D01*
X170118Y3740D01*
X170393Y3740D01*
X170629Y3818D01*
X170866Y3937D01*
X171102Y4055D01*
X171259Y4251D01*
X171377Y4448D01*
X171496Y4685D01*
X171535Y4921D01*
X171535Y4921D01*
G37*
G36*
X168503Y2677D02*
X168503Y2677D01*
X168503Y3188D01*
X165000Y3188D01*
X165000Y2677D01*
X168503Y2677D01*
G37*
G36*
X161968Y7913D02*
X164645Y7992D01*
X162480Y7992D01*
X161968Y7913D01*
G37*
G36*
X161811Y7874D02*
X164645Y7992D01*
X161968Y7913D01*
X161811Y7874D01*
G37*
G36*
X161496Y7716D02*
X164645Y7992D01*
X161811Y7874D01*
X161496Y7716D01*
G37*
G36*
X161299Y7480D02*
X164645Y7992D01*
X161496Y7716D01*
X161299Y7480D01*
G37*
G36*
X162440Y7283D02*
X164645Y7992D01*
X161299Y7480D01*
X162440Y7283D01*
G37*
G36*
X163779Y7283D02*
X164645Y7992D01*
X162440Y7283D01*
X163779Y7283D01*
G37*
G36*
X162244Y7204D02*
X162440Y7283D01*
X161299Y7480D01*
X162244Y7204D01*
G37*
G36*
X161141Y7165D02*
X162244Y7204D01*
X161299Y7480D01*
X161141Y7165D01*
G37*
G36*
X162086Y7125D02*
X162244Y7204D01*
X161141Y7165D01*
X162086Y7125D01*
G37*
G36*
X162007Y6968D02*
X162086Y7125D01*
X161141Y7165D01*
X162007Y6968D01*
G37*
G36*
X161102Y6811D02*
X162007Y6968D01*
X161141Y7165D01*
X161102Y6811D01*
G37*
G36*
X161968Y6771D02*
X162007Y6968D01*
X161102Y6811D01*
X161968Y6771D01*
G37*
G36*
X162047Y6456D02*
X161968Y6771D01*
X161102Y6811D01*
X162047Y6456D01*
G37*
G36*
X161181Y6377D02*
X162047Y6456D01*
X161102Y6811D01*
X161181Y6377D01*
G37*
G36*
X162322Y6299D02*
X162047Y6456D01*
X161181Y6377D01*
X162322Y6299D01*
G37*
G36*
X162598Y6259D02*
X162401Y6299D01*
X162322Y6299D01*
X162598Y6259D01*
G37*
G36*
X162598Y6259D02*
X162322Y6299D01*
X161181Y6377D01*
X162598Y6259D01*
G37*
G36*
X163779Y6259D02*
X164645Y7992D01*
X163779Y7283D01*
X163779Y6259D01*
G37*
G36*
X161377Y6023D02*
X162598Y6259D01*
X161181Y6377D01*
X161377Y6023D01*
G37*
G36*
X161377Y6023D02*
X163779Y6259D01*
X162598Y6259D01*
X161377Y6023D01*
G37*
G36*
X161732Y5787D02*
X163779Y6259D01*
X161377Y6023D01*
X161732Y5787D01*
G37*
G36*
X162204Y5669D02*
X163779Y6259D01*
X161732Y5787D01*
X162204Y5669D01*
G37*
G36*
X163307Y5551D02*
X163779Y6259D01*
X162204Y5669D01*
X163307Y5551D01*
G37*
G36*
X163779Y5551D02*
X163779Y6259D01*
X163307Y5551D01*
X163779Y5551D01*
G37*
G36*
X163779Y5551D02*
X164645Y7992D01*
X163779Y6259D01*
X163779Y5551D01*
G37*
G36*
X163149Y5511D02*
X163307Y5551D01*
X162204Y5669D01*
X163149Y5511D01*
G37*
G36*
X162874Y5354D02*
X163149Y5511D01*
X162204Y5669D01*
X162874Y5354D01*
G37*
G36*
X161771Y5314D02*
X162874Y5354D01*
X162204Y5669D01*
X161771Y5314D01*
G37*
G36*
X162795Y5236D02*
X162874Y5354D01*
X161771Y5314D01*
X162795Y5236D01*
G37*
G36*
X162677Y5118D02*
X162795Y5236D01*
X161771Y5314D01*
X162677Y5118D01*
G37*
G36*
X161535Y5039D02*
X162677Y5118D01*
X161771Y5314D01*
X161535Y5039D01*
G37*
G36*
X162401Y4763D02*
X162677Y5118D01*
X161535Y5039D01*
X162401Y4763D01*
G37*
G36*
X161259Y4645D02*
X162401Y4763D01*
X161535Y5039D01*
X161259Y4645D01*
G37*
G36*
X160748Y3818D02*
X162401Y4763D01*
X161259Y4645D01*
X160748Y3818D01*
G37*
G36*
X161771Y3818D02*
X162401Y4763D01*
X160748Y3818D01*
X161771Y3818D01*
G37*
G36*
X163779Y3818D02*
X164645Y7992D01*
X163779Y5551D01*
X163779Y3818D01*
G37*
G36*
X164645Y3818D02*
X164645Y7992D01*
X163779Y3818D01*
X164645Y3818D01*
G37*
G36*
X160275Y3818D02*
X160275Y3818D01*
X160275Y7992D01*
X157322Y7992D01*
X157322Y7283D01*
X159409Y7283D01*
X159409Y6299D01*
X157598Y6299D01*
X157598Y5590D01*
X159409Y5590D01*
X159409Y3818D01*
X160275Y3818D01*
G37*
G36*
X157086Y2677D02*
X157086Y2677D01*
X157086Y3188D01*
X153582Y3188D01*
X153582Y2677D01*
X157086Y2677D01*
G37*
G36*
X150511Y5944D02*
X150511Y5944D01*
X151338Y5826D01*
X151417Y6023D01*
X151535Y6181D01*
X151692Y6259D01*
X151929Y6299D01*
X152204Y6259D01*
X152401Y6102D01*
X152559Y5787D01*
X152598Y5393D01*
X152598Y5118D01*
X152559Y4921D01*
X152480Y4724D01*
X152401Y4606D01*
X152165Y4409D01*
X151889Y4370D01*
X151653Y4409D01*
X151496Y4488D01*
X151338Y4685D01*
X151259Y4960D01*
X150433Y4842D01*
X150629Y4370D01*
X150944Y4015D01*
X151338Y3818D01*
X151889Y3740D01*
X152244Y3779D01*
X152519Y3858D01*
X152795Y3976D01*
X152992Y4173D01*
X153188Y4409D01*
X153307Y4645D01*
X153385Y4960D01*
X153425Y5314D01*
X153385Y5669D01*
X153307Y5984D01*
X153188Y6259D01*
X153031Y6496D01*
X152795Y6692D01*
X152519Y6811D01*
X152244Y6889D01*
X151889Y6929D01*
X151377Y6850D01*
X150984Y6692D01*
X150708Y6377D01*
X150511Y5944D01*
X150511Y5944D01*
G37*
G36*
X147165Y5944D02*
X147165Y5944D01*
X147992Y5826D01*
X148070Y6023D01*
X148188Y6181D01*
X148346Y6259D01*
X148582Y6299D01*
X148858Y6259D01*
X149055Y6102D01*
X149212Y5787D01*
X149251Y5393D01*
X149251Y5118D01*
X149212Y4921D01*
X149133Y4724D01*
X149055Y4606D01*
X148818Y4409D01*
X148543Y4370D01*
X148307Y4409D01*
X148149Y4488D01*
X147992Y4685D01*
X147913Y4960D01*
X147086Y4842D01*
X147283Y4370D01*
X147598Y4015D01*
X147992Y3818D01*
X148543Y3740D01*
X148897Y3779D01*
X149173Y3858D01*
X149448Y3976D01*
X149645Y4173D01*
X149842Y4409D01*
X149960Y4645D01*
X150039Y4960D01*
X150078Y5314D01*
X150039Y5669D01*
X149960Y5984D01*
X149842Y6259D01*
X149685Y6496D01*
X149448Y6692D01*
X149173Y6811D01*
X148897Y6889D01*
X148543Y6929D01*
X148031Y6850D01*
X147637Y6692D01*
X147362Y6377D01*
X147165Y5944D01*
X147165Y5944D01*
G37*
G36*
X144606Y3818D02*
X144606Y3818D01*
X145433Y3818D01*
X145433Y6850D01*
X145905Y6496D01*
X146496Y6259D01*
X146496Y6968D01*
X146141Y7125D01*
X145787Y7362D01*
X145472Y7677D01*
X145275Y8031D01*
X144606Y8031D01*
X144606Y3818D01*
G37*
G36*
X141259Y3818D02*
X141259Y3818D01*
X142086Y3818D01*
X142086Y6850D01*
X142559Y6496D01*
X143149Y6259D01*
X143149Y6968D01*
X142795Y7125D01*
X142440Y7362D01*
X142125Y7677D01*
X141929Y8031D01*
X141259Y8031D01*
X141259Y3818D01*
G37*
G36*
X138897Y7992D02*
X138582Y8031D01*
X138307Y7992D01*
X138897Y7992D01*
G37*
G36*
X138031Y7913D02*
X138897Y7992D01*
X138307Y7992D01*
X138031Y7913D01*
G37*
G36*
X139173Y7913D02*
X138897Y7992D01*
X138031Y7913D01*
X139173Y7913D01*
G37*
G36*
X137795Y7795D02*
X139173Y7913D01*
X138031Y7913D01*
X137795Y7795D01*
G37*
G36*
X139409Y7795D02*
X139173Y7913D01*
X137795Y7795D01*
X139409Y7795D01*
G37*
G36*
X137598Y7598D02*
X139409Y7795D01*
X137795Y7795D01*
X137598Y7598D01*
G37*
G36*
X139606Y7598D02*
X139409Y7795D01*
X137598Y7598D01*
X139606Y7598D01*
G37*
G36*
X138582Y7362D02*
X139606Y7598D01*
X137598Y7598D01*
X138582Y7362D01*
G37*
G36*
X138464Y7322D02*
X138582Y7362D01*
X137598Y7598D01*
X138464Y7322D01*
G37*
G36*
X137401Y7283D02*
X138464Y7322D01*
X137598Y7598D01*
X137401Y7283D01*
G37*
G36*
X138307Y7283D02*
X138464Y7322D01*
X137401Y7283D01*
X138307Y7283D01*
G37*
G36*
X138897Y7283D02*
X139606Y7598D01*
X138582Y7362D01*
X138897Y7283D01*
G37*
G36*
X139803Y7283D02*
X139606Y7598D01*
X138897Y7283D01*
X139803Y7283D01*
G37*
G36*
X138188Y7125D02*
X138307Y7283D01*
X137401Y7283D01*
X138188Y7125D01*
G37*
G36*
X139015Y7125D02*
X139803Y7283D01*
X138897Y7283D01*
X139015Y7125D01*
G37*
G36*
X139094Y6929D02*
X139803Y7283D01*
X139015Y7125D01*
X139094Y6929D01*
G37*
G36*
X139921Y6929D02*
X139803Y7283D01*
X139094Y6929D01*
X139921Y6929D01*
G37*
G36*
X137283Y6889D02*
X138188Y7125D01*
X137401Y7283D01*
X137283Y6889D01*
G37*
G36*
X138110Y6889D02*
X138188Y7125D01*
X137283Y6889D01*
X138110Y6889D01*
G37*
G36*
X138070Y6732D02*
X138110Y6889D01*
X137283Y6889D01*
X138070Y6732D01*
G37*
G36*
X139133Y6732D02*
X139921Y6929D01*
X139094Y6929D01*
X139133Y6732D01*
G37*
G36*
X138031Y6496D02*
X138070Y6732D01*
X137283Y6889D01*
X138031Y6496D01*
G37*
G36*
X139133Y6496D02*
X139921Y6929D01*
X139133Y6732D01*
X139133Y6496D01*
G37*
G36*
X140000Y6456D02*
X139921Y6929D01*
X139133Y6496D01*
X140000Y6456D01*
G37*
G36*
X137204Y6417D02*
X138031Y6496D01*
X137283Y6889D01*
X137204Y6417D01*
G37*
G36*
X139173Y6220D02*
X140000Y6456D01*
X139133Y6496D01*
X139173Y6220D01*
G37*
G36*
X140039Y5905D02*
X140000Y6456D01*
X139173Y6220D01*
X140039Y5905D01*
G37*
G36*
X137165Y5866D02*
X138031Y6496D01*
X137204Y6417D01*
X137165Y5866D01*
G37*
G36*
X138031Y5551D02*
X138031Y6496D01*
X137165Y5866D01*
X138031Y5551D01*
G37*
G36*
X139173Y5551D02*
X140039Y5905D01*
X139173Y6220D01*
X139173Y5551D01*
G37*
G36*
X137204Y5314D02*
X138031Y5551D01*
X137165Y5866D01*
X137204Y5314D01*
G37*
G36*
X140000Y5314D02*
X140039Y5905D01*
X139173Y5551D01*
X140000Y5314D01*
G37*
G36*
X139133Y5275D02*
X140000Y5314D01*
X139173Y5551D01*
X139133Y5275D01*
G37*
G36*
X138070Y5236D02*
X138031Y5551D01*
X137204Y5314D01*
X138070Y5236D01*
G37*
G36*
X139133Y5039D02*
X140000Y5314D01*
X139133Y5275D01*
X139133Y5039D01*
G37*
G36*
X138070Y5000D02*
X138070Y5236D01*
X137204Y5314D01*
X138070Y5000D01*
G37*
G36*
X139094Y4881D02*
X140000Y5314D01*
X139133Y5039D01*
X139094Y4881D01*
G37*
G36*
X139921Y4881D02*
X140000Y5314D01*
X139094Y4881D01*
X139921Y4881D01*
G37*
G36*
X137283Y4842D02*
X138070Y5000D01*
X137204Y5314D01*
X137283Y4842D01*
G37*
G36*
X138110Y4842D02*
X138070Y5000D01*
X137283Y4842D01*
X138110Y4842D01*
G37*
G36*
X138188Y4645D02*
X138110Y4842D01*
X137283Y4842D01*
X138188Y4645D01*
G37*
G36*
X139015Y4645D02*
X139921Y4881D01*
X139094Y4881D01*
X139015Y4645D01*
G37*
G36*
X138307Y4488D02*
X138188Y4645D01*
X137283Y4842D01*
X138307Y4488D01*
G37*
G36*
X138897Y4488D02*
X139921Y4881D01*
X139015Y4645D01*
X138897Y4488D01*
G37*
G36*
X139803Y4488D02*
X139921Y4881D01*
X138897Y4488D01*
X139803Y4488D01*
G37*
G36*
X137401Y4448D02*
X138307Y4488D01*
X137283Y4842D01*
X137401Y4448D01*
G37*
G36*
X138464Y4409D02*
X138307Y4488D01*
X137401Y4448D01*
X138464Y4409D01*
G37*
G36*
X138740Y4409D02*
X139803Y4488D01*
X138897Y4488D01*
X138740Y4409D01*
G37*
G36*
X139645Y4212D02*
X139803Y4488D01*
X138740Y4409D01*
X139645Y4212D01*
G37*
G36*
X139645Y4212D02*
X138740Y4409D01*
X138464Y4409D01*
X139645Y4212D01*
G37*
G36*
X139645Y4212D02*
X138464Y4409D01*
X137401Y4448D01*
X139645Y4212D01*
G37*
G36*
X137598Y4173D02*
X139645Y4212D01*
X137401Y4448D01*
X137598Y4173D01*
G37*
G36*
X139409Y4015D02*
X139645Y4212D01*
X137598Y4173D01*
X139409Y4015D01*
G37*
G36*
X137795Y3976D02*
X139409Y4015D01*
X137598Y4173D01*
X137795Y3976D01*
G37*
G36*
X138031Y3858D02*
X139409Y4015D01*
X137795Y3976D01*
X138031Y3858D01*
G37*
G36*
X139173Y3858D02*
X139409Y4015D01*
X138031Y3858D01*
X139173Y3858D01*
G37*
G36*
X138307Y3779D02*
X139173Y3858D01*
X138031Y3858D01*
X138307Y3779D01*
G37*
G36*
X138897Y3779D02*
X139173Y3858D01*
X138307Y3779D01*
X138897Y3779D01*
G37*
G36*
X138582Y3740D02*
X138897Y3779D01*
X138307Y3779D01*
X138582Y3740D01*
G37*
G36*
X134566Y3818D02*
X134566Y3818D01*
X135393Y3818D01*
X135393Y6850D01*
X135866Y6496D01*
X136456Y6259D01*
X136456Y6968D01*
X136102Y7125D01*
X135748Y7362D01*
X135433Y7677D01*
X135236Y8031D01*
X134566Y8031D01*
X134566Y3818D01*
G37*
G36*
X133661Y2677D02*
X133661Y2677D01*
X133661Y3188D01*
X130157Y3188D01*
X130157Y2677D01*
X133661Y2677D01*
G37*
G36*
X128976Y3818D02*
X128976Y3818D01*
X130196Y6850D01*
X129330Y6850D01*
X128818Y5314D01*
X128622Y4803D01*
X128582Y4960D01*
X128543Y5039D01*
X128464Y5314D01*
X127913Y6850D01*
X127047Y6850D01*
X128267Y3818D01*
X128976Y3818D01*
G37*
G36*
X124527Y3818D02*
X124527Y3818D01*
X125354Y3818D01*
X125354Y6850D01*
X125826Y6496D01*
X126417Y6259D01*
X126417Y6968D01*
X126062Y7125D01*
X125708Y7362D01*
X125393Y7677D01*
X125196Y8031D01*
X124527Y8031D01*
X124527Y3818D01*
G37*
G36*
X123110Y3818D02*
X123110Y3818D01*
X123110Y4606D01*
X122283Y4606D01*
X122283Y3818D01*
X123110Y3818D01*
G37*
G36*
X120472Y7992D02*
X120157Y8031D01*
X119881Y7992D01*
X120472Y7992D01*
G37*
G36*
X119606Y7913D02*
X120472Y7992D01*
X119881Y7992D01*
X119606Y7913D01*
G37*
G36*
X120748Y7913D02*
X120472Y7992D01*
X119606Y7913D01*
X120748Y7913D01*
G37*
G36*
X119370Y7795D02*
X120748Y7913D01*
X119606Y7913D01*
X119370Y7795D01*
G37*
G36*
X120984Y7795D02*
X120748Y7913D01*
X119370Y7795D01*
X120984Y7795D01*
G37*
G36*
X119173Y7598D02*
X120984Y7795D01*
X119370Y7795D01*
X119173Y7598D01*
G37*
G36*
X121181Y7598D02*
X120984Y7795D01*
X119173Y7598D01*
X121181Y7598D01*
G37*
G36*
X120157Y7362D02*
X121181Y7598D01*
X119173Y7598D01*
X120157Y7362D01*
G37*
G36*
X120039Y7322D02*
X120157Y7362D01*
X119173Y7598D01*
X120039Y7322D01*
G37*
G36*
X118976Y7283D02*
X120039Y7322D01*
X119173Y7598D01*
X118976Y7283D01*
G37*
G36*
X119881Y7283D02*
X120039Y7322D01*
X118976Y7283D01*
X119881Y7283D01*
G37*
G36*
X120472Y7283D02*
X121181Y7598D01*
X120157Y7362D01*
X120472Y7283D01*
G37*
G36*
X121377Y7283D02*
X121181Y7598D01*
X120472Y7283D01*
X121377Y7283D01*
G37*
G36*
X119763Y7125D02*
X119881Y7283D01*
X118976Y7283D01*
X119763Y7125D01*
G37*
G36*
X120590Y7125D02*
X121377Y7283D01*
X120472Y7283D01*
X120590Y7125D01*
G37*
G36*
X120669Y6929D02*
X121377Y7283D01*
X120590Y7125D01*
X120669Y6929D01*
G37*
G36*
X121496Y6929D02*
X121377Y7283D01*
X120669Y6929D01*
X121496Y6929D01*
G37*
G36*
X118858Y6889D02*
X119763Y7125D01*
X118976Y7283D01*
X118858Y6889D01*
G37*
G36*
X119685Y6889D02*
X119763Y7125D01*
X118858Y6889D01*
X119685Y6889D01*
G37*
G36*
X119645Y6732D02*
X119685Y6889D01*
X118858Y6889D01*
X119645Y6732D01*
G37*
G36*
X120708Y6732D02*
X121496Y6929D01*
X120669Y6929D01*
X120708Y6732D01*
G37*
G36*
X119606Y6496D02*
X119645Y6732D01*
X118858Y6889D01*
X119606Y6496D01*
G37*
G36*
X120708Y6496D02*
X121496Y6929D01*
X120708Y6732D01*
X120708Y6496D01*
G37*
G36*
X121574Y6456D02*
X121496Y6929D01*
X120708Y6496D01*
X121574Y6456D01*
G37*
G36*
X118779Y6417D02*
X119606Y6496D01*
X118858Y6889D01*
X118779Y6417D01*
G37*
G36*
X120748Y6220D02*
X121574Y6456D01*
X120708Y6496D01*
X120748Y6220D01*
G37*
G36*
X121614Y5905D02*
X121574Y6456D01*
X120748Y6220D01*
X121614Y5905D01*
G37*
G36*
X118740Y5866D02*
X119606Y6496D01*
X118779Y6417D01*
X118740Y5866D01*
G37*
G36*
X119606Y5551D02*
X119606Y6496D01*
X118740Y5866D01*
X119606Y5551D01*
G37*
G36*
X120748Y5551D02*
X121614Y5905D01*
X120748Y6220D01*
X120748Y5551D01*
G37*
G36*
X118779Y5314D02*
X119606Y5551D01*
X118740Y5866D01*
X118779Y5314D01*
G37*
G36*
X121574Y5314D02*
X121614Y5905D01*
X120748Y5551D01*
X121574Y5314D01*
G37*
G36*
X120708Y5275D02*
X121574Y5314D01*
X120748Y5551D01*
X120708Y5275D01*
G37*
G36*
X119645Y5236D02*
X119606Y5551D01*
X118779Y5314D01*
X119645Y5236D01*
G37*
G36*
X120708Y5039D02*
X121574Y5314D01*
X120708Y5275D01*
X120708Y5039D01*
G37*
G36*
X119645Y5000D02*
X119645Y5236D01*
X118779Y5314D01*
X119645Y5000D01*
G37*
G36*
X120669Y4881D02*
X121574Y5314D01*
X120708Y5039D01*
X120669Y4881D01*
G37*
G36*
X121496Y4881D02*
X121574Y5314D01*
X120669Y4881D01*
X121496Y4881D01*
G37*
G36*
X118858Y4842D02*
X119645Y5000D01*
X118779Y5314D01*
X118858Y4842D01*
G37*
G36*
X119685Y4842D02*
X119645Y5000D01*
X118858Y4842D01*
X119685Y4842D01*
G37*
G36*
X119763Y4645D02*
X119685Y4842D01*
X118858Y4842D01*
X119763Y4645D01*
G37*
G36*
X120590Y4645D02*
X121496Y4881D01*
X120669Y4881D01*
X120590Y4645D01*
G37*
G36*
X119881Y4488D02*
X119763Y4645D01*
X118858Y4842D01*
X119881Y4488D01*
G37*
G36*
X120472Y4488D02*
X121496Y4881D01*
X120590Y4645D01*
X120472Y4488D01*
G37*
G36*
X121377Y4488D02*
X121496Y4881D01*
X120472Y4488D01*
X121377Y4488D01*
G37*
G36*
X118976Y4448D02*
X119881Y4488D01*
X118858Y4842D01*
X118976Y4448D01*
G37*
G36*
X120039Y4409D02*
X119881Y4488D01*
X118976Y4448D01*
X120039Y4409D01*
G37*
G36*
X120314Y4409D02*
X121377Y4488D01*
X120472Y4488D01*
X120314Y4409D01*
G37*
G36*
X121220Y4212D02*
X121377Y4488D01*
X120314Y4409D01*
X121220Y4212D01*
G37*
G36*
X121220Y4212D02*
X120314Y4409D01*
X120039Y4409D01*
X121220Y4212D01*
G37*
G36*
X121220Y4212D02*
X120039Y4409D01*
X118976Y4448D01*
X121220Y4212D01*
G37*
G36*
X119173Y4173D02*
X121220Y4212D01*
X118976Y4448D01*
X119173Y4173D01*
G37*
G36*
X120984Y4015D02*
X121220Y4212D01*
X119173Y4173D01*
X120984Y4015D01*
G37*
G36*
X119370Y3976D02*
X120984Y4015D01*
X119173Y4173D01*
X119370Y3976D01*
G37*
G36*
X119606Y3858D02*
X120984Y4015D01*
X119370Y3976D01*
X119606Y3858D01*
G37*
G36*
X120748Y3858D02*
X120984Y4015D01*
X119606Y3858D01*
X120748Y3858D01*
G37*
G36*
X119881Y3779D02*
X120748Y3858D01*
X119606Y3858D01*
X119881Y3779D01*
G37*
G36*
X120472Y3779D02*
X120748Y3858D01*
X119881Y3779D01*
X120472Y3779D01*
G37*
G36*
X120157Y3740D02*
X120472Y3779D01*
X119881Y3779D01*
X120157Y3740D01*
G37*
G36*
X184242Y18907D02*
X184242Y18907D01*
X183415Y18986D01*
X183297Y18631D01*
X183100Y18395D01*
X182824Y18238D01*
X182431Y18198D01*
X182076Y18238D01*
X181801Y18356D01*
X181604Y18553D01*
X181564Y18750D01*
X181604Y18907D01*
X181643Y19025D01*
X181761Y19104D01*
X181958Y19183D01*
X182076Y19222D01*
X182234Y19261D01*
X182431Y19301D01*
X182667Y19379D01*
X183021Y19458D01*
X183297Y19576D01*
X183494Y19694D01*
X183690Y19812D01*
X183848Y19970D01*
X183966Y20167D01*
X184045Y20403D01*
X184084Y20639D01*
X184045Y20954D01*
X183887Y21230D01*
X183651Y21505D01*
X183375Y21663D01*
X182982Y21781D01*
X182509Y21820D01*
X182116Y21781D01*
X181801Y21742D01*
X181525Y21624D01*
X181289Y21466D01*
X181092Y21269D01*
X180974Y21072D01*
X180895Y20836D01*
X180856Y20561D01*
X181683Y20521D01*
X181761Y20797D01*
X181919Y20954D01*
X182155Y21072D01*
X182470Y21112D01*
X182824Y21072D01*
X183061Y20954D01*
X183179Y20836D01*
X183218Y20718D01*
X183179Y20561D01*
X183100Y20442D01*
X182982Y20403D01*
X182824Y20324D01*
X182588Y20246D01*
X182273Y20167D01*
X181998Y20088D01*
X181722Y20009D01*
X181525Y19931D01*
X181328Y19852D01*
X181092Y19694D01*
X180856Y19458D01*
X180738Y19143D01*
X180698Y18789D01*
X180738Y18435D01*
X180895Y18120D01*
X181171Y17844D01*
X181486Y17647D01*
X181919Y17529D01*
X182431Y17490D01*
X182824Y17529D01*
X183179Y17568D01*
X183454Y17687D01*
X183730Y17844D01*
X183927Y18041D01*
X184045Y18277D01*
X184163Y18592D01*
X184242Y18907D01*
X184242Y18907D01*
G37*
G36*
X178533Y20600D02*
X178533Y20600D01*
X178533Y19970D01*
X179124Y19970D01*
X179124Y18710D01*
X179124Y18553D01*
X179124Y18395D01*
X179124Y18316D01*
X179124Y18277D01*
X179005Y18159D01*
X178887Y18120D01*
X178730Y18120D01*
X178494Y18198D01*
X178454Y17608D01*
X178769Y17529D01*
X179124Y17490D01*
X179320Y17490D01*
X179517Y17568D01*
X179675Y17647D01*
X179793Y17765D01*
X179872Y17883D01*
X179911Y18080D01*
X179950Y18277D01*
X179950Y18631D01*
X179950Y19970D01*
X180344Y19970D01*
X180344Y20600D01*
X179950Y20600D01*
X179950Y21190D01*
X179124Y21663D01*
X179124Y20600D01*
X178533Y20600D01*
G37*
G36*
X177273Y20639D02*
X176761Y20679D01*
X176289Y20639D01*
X177273Y20639D01*
G37*
G36*
X175935Y20561D02*
X177273Y20639D01*
X176289Y20639D01*
X175935Y20561D01*
G37*
G36*
X177667Y20442D02*
X177273Y20639D01*
X175935Y20561D01*
X177667Y20442D01*
G37*
G36*
X175738Y20403D02*
X177667Y20442D01*
X175935Y20561D01*
X175738Y20403D01*
G37*
G36*
X175580Y20206D02*
X177667Y20442D01*
X175738Y20403D01*
X175580Y20206D01*
G37*
G36*
X177942Y20167D02*
X177667Y20442D01*
X175580Y20206D01*
X177942Y20167D01*
G37*
G36*
X175501Y20088D02*
X177942Y20167D01*
X175580Y20206D01*
X175501Y20088D01*
G37*
G36*
X176840Y20049D02*
X177942Y20167D01*
X175501Y20088D01*
X176840Y20049D01*
G37*
G36*
X176564Y20009D02*
X176840Y20049D01*
X175501Y20088D01*
X176564Y20009D01*
G37*
G36*
X177155Y19970D02*
X177942Y20167D01*
X176840Y20049D01*
X177155Y19970D01*
G37*
G36*
X175501Y19931D02*
X176564Y20009D01*
X175501Y20088D01*
X175501Y19931D01*
G37*
G36*
X176407Y19931D02*
X176564Y20009D01*
X175501Y19931D01*
X176407Y19931D01*
G37*
G36*
X177273Y19852D02*
X177942Y20167D01*
X177155Y19970D01*
X177273Y19852D01*
G37*
G36*
X176328Y19812D02*
X176407Y19931D01*
X175501Y19931D01*
X176328Y19812D01*
G37*
G36*
X178100Y19773D02*
X177942Y20167D01*
X177273Y19852D01*
X178100Y19773D01*
G37*
G36*
X175462Y19734D02*
X176328Y19812D01*
X175501Y19931D01*
X175462Y19734D01*
G37*
G36*
X177352Y19655D02*
X178100Y19773D01*
X177273Y19852D01*
X177352Y19655D01*
G37*
G36*
X176289Y19616D02*
X176328Y19812D01*
X175462Y19734D01*
X176289Y19616D01*
G37*
G36*
X176289Y19537D02*
X176289Y19616D01*
X175462Y19734D01*
X176289Y19537D01*
G37*
G36*
X176407Y19498D02*
X176289Y19537D01*
X175462Y19734D01*
X176407Y19498D01*
G37*
G36*
X176604Y19419D02*
X176407Y19498D01*
X175462Y19734D01*
X176604Y19419D01*
G37*
G36*
X177470Y19261D02*
X177076Y19340D01*
X176604Y19419D01*
X177470Y19261D01*
G37*
G36*
X177746Y19143D02*
X177470Y19261D01*
X176604Y19419D01*
X177746Y19143D01*
G37*
G36*
X177942Y19025D02*
X177746Y19143D01*
X176604Y19419D01*
X177942Y19025D01*
G37*
G36*
X177942Y19025D02*
X176604Y19419D01*
X175462Y19734D01*
X177942Y19025D01*
G37*
G36*
X176289Y18986D02*
X177942Y19025D01*
X175462Y19734D01*
X176289Y18986D01*
G37*
G36*
X176486Y18946D02*
X177942Y19025D01*
X176289Y18986D01*
X176486Y18946D01*
G37*
G36*
X176801Y18868D02*
X177942Y19025D01*
X176486Y18946D01*
X176801Y18868D01*
G37*
G36*
X178100Y18828D02*
X177942Y19025D01*
X176801Y18868D01*
X178100Y18828D01*
G37*
G36*
X177234Y18750D02*
X178100Y18828D01*
X176801Y18868D01*
X177234Y18750D01*
G37*
G36*
X176289Y18631D02*
X176289Y18986D01*
X175462Y19734D01*
X176289Y18631D01*
G37*
G36*
X177352Y18631D02*
X178100Y18828D01*
X177234Y18750D01*
X177352Y18631D01*
G37*
G36*
X178179Y18631D02*
X178100Y18828D01*
X177352Y18631D01*
X178179Y18631D01*
G37*
G36*
X176328Y18474D02*
X176289Y18631D01*
X175462Y19734D01*
X176328Y18474D01*
G37*
G36*
X177391Y18474D02*
X178179Y18631D01*
X177352Y18631D01*
X177391Y18474D01*
G37*
G36*
X178218Y18395D02*
X178179Y18631D01*
X177391Y18474D01*
X178218Y18395D01*
G37*
G36*
X176407Y18356D02*
X176328Y18474D01*
X175462Y19734D01*
X176407Y18356D01*
G37*
G36*
X177352Y18356D02*
X178218Y18395D01*
X177391Y18474D01*
X177352Y18356D01*
G37*
G36*
X177273Y18238D02*
X178218Y18395D01*
X177352Y18356D01*
X177273Y18238D01*
G37*
G36*
X175462Y18198D02*
X176407Y18356D01*
X175462Y19734D01*
X175462Y18198D01*
G37*
G36*
X175462Y18198D02*
X176525Y18238D01*
X176407Y18356D01*
X175462Y18198D01*
G37*
G36*
X176722Y18159D02*
X176525Y18238D01*
X175462Y18198D01*
X176722Y18159D01*
G37*
G36*
X177116Y18159D02*
X178218Y18395D01*
X177273Y18238D01*
X177116Y18159D01*
G37*
G36*
X176919Y18120D02*
X176722Y18159D01*
X175462Y18198D01*
X176919Y18120D01*
G37*
G36*
X178139Y18041D02*
X178218Y18395D01*
X177116Y18159D01*
X178139Y18041D01*
G37*
G36*
X178139Y18041D02*
X177116Y18159D01*
X176919Y18120D01*
X178139Y18041D01*
G37*
G36*
X178139Y18041D02*
X176919Y18120D01*
X175462Y18198D01*
X178139Y18041D01*
G37*
G36*
X175423Y17962D02*
X178139Y18041D01*
X175462Y18198D01*
X175423Y17962D01*
G37*
G36*
X176210Y17923D02*
X178139Y18041D01*
X175423Y17962D01*
X176210Y17923D01*
G37*
G36*
X176171Y17844D02*
X176210Y17923D01*
X175423Y17962D01*
X176171Y17844D01*
G37*
G36*
X176407Y17726D02*
X178139Y18041D01*
X176210Y17923D01*
X176407Y17726D01*
G37*
G36*
X177942Y17726D02*
X178139Y18041D01*
X176407Y17726D01*
X177942Y17726D01*
G37*
G36*
X176131Y17687D02*
X176171Y17844D01*
X175423Y17962D01*
X176131Y17687D01*
G37*
G36*
X176643Y17608D02*
X177942Y17726D01*
X176407Y17726D01*
X176643Y17608D01*
G37*
G36*
X175265Y17568D02*
X176131Y17687D01*
X175423Y17962D01*
X175265Y17568D01*
G37*
G36*
X176092Y17568D02*
X176131Y17687D01*
X175265Y17568D01*
X176092Y17568D01*
G37*
G36*
X177588Y17568D02*
X177942Y17726D01*
X176643Y17608D01*
X177588Y17568D01*
G37*
G36*
X176919Y17529D02*
X177588Y17568D01*
X176643Y17608D01*
X176919Y17529D01*
G37*
G36*
X177155Y17490D02*
X177588Y17568D01*
X176919Y17529D01*
X177155Y17490D01*
G37*
G36*
X171801Y17568D02*
X171801Y17568D01*
X172627Y17568D01*
X172627Y19104D01*
X172627Y19340D01*
X172627Y19498D01*
X172667Y19655D01*
X172667Y19734D01*
X172864Y19970D01*
X173139Y20049D01*
X173336Y20009D01*
X173533Y19931D01*
X173651Y19812D01*
X173730Y19616D01*
X173809Y19340D01*
X173809Y18946D01*
X173809Y17568D01*
X174635Y17568D01*
X174635Y20600D01*
X173848Y20600D01*
X173848Y20167D01*
X173651Y20364D01*
X173375Y20561D01*
X173139Y20639D01*
X172824Y20679D01*
X172588Y20639D01*
X172352Y20561D01*
X172155Y20482D01*
X171998Y20324D01*
X171840Y20009D01*
X171801Y19773D01*
X171801Y19458D01*
X171801Y17568D01*
G37*
G36*
X170108Y20639D02*
X169832Y20679D01*
X169557Y20639D01*
X170108Y20639D01*
G37*
G36*
X169320Y20561D02*
X170108Y20639D01*
X169557Y20639D01*
X169320Y20561D01*
G37*
G36*
X170344Y20561D02*
X170108Y20639D01*
X169320Y20561D01*
X170344Y20561D01*
G37*
G36*
X169124Y20442D02*
X170344Y20561D01*
X169320Y20561D01*
X169124Y20442D01*
G37*
G36*
X170580Y20442D02*
X170344Y20561D01*
X169124Y20442D01*
X170580Y20442D01*
G37*
G36*
X170777Y20285D02*
X170580Y20442D01*
X169124Y20442D01*
X170777Y20285D01*
G37*
G36*
X168927Y20246D02*
X168927Y21742D01*
X168100Y21742D01*
X168927Y20246D01*
G37*
G36*
X168927Y20246D02*
X170777Y20285D01*
X169124Y20442D01*
X168927Y20246D01*
G37*
G36*
X169596Y20049D02*
X170777Y20285D01*
X168927Y20246D01*
X169596Y20049D01*
G37*
G36*
X170935Y20049D02*
X170777Y20285D01*
X169596Y20049D01*
X170935Y20049D01*
G37*
G36*
X169320Y19970D02*
X169596Y20049D01*
X168927Y20246D01*
X169320Y19970D01*
G37*
G36*
X169872Y19970D02*
X170935Y20049D01*
X169596Y20049D01*
X169872Y19970D01*
G37*
G36*
X169124Y19812D02*
X169320Y19970D01*
X168927Y20246D01*
X169124Y19812D01*
G37*
G36*
X169124Y19812D02*
X168927Y20246D01*
X168100Y21742D01*
X169124Y19812D01*
G37*
G36*
X170108Y19812D02*
X170935Y20049D01*
X169872Y19970D01*
X170108Y19812D01*
G37*
G36*
X171053Y19773D02*
X170935Y20049D01*
X170108Y19812D01*
X171053Y19773D01*
G37*
G36*
X170265Y19537D02*
X171053Y19773D01*
X170108Y19812D01*
X170265Y19537D01*
G37*
G36*
X168966Y19498D02*
X169124Y19812D01*
X168100Y21742D01*
X168966Y19498D01*
G37*
G36*
X170305Y19143D02*
X171053Y19773D01*
X170265Y19537D01*
X170305Y19143D01*
G37*
G36*
X171131Y19104D02*
X171053Y19773D01*
X170305Y19143D01*
X171131Y19104D01*
G37*
G36*
X168927Y19064D02*
X168966Y19498D01*
X168100Y21742D01*
X168927Y19064D01*
G37*
G36*
X170265Y18710D02*
X171131Y19104D01*
X170305Y19143D01*
X170265Y18710D01*
G37*
G36*
X168966Y18631D02*
X168927Y19064D01*
X168100Y21742D01*
X168966Y18631D01*
G37*
G36*
X170147Y18435D02*
X171131Y19104D01*
X170265Y18710D01*
X170147Y18435D01*
G37*
G36*
X171053Y18435D02*
X171131Y19104D01*
X170147Y18435D01*
X171053Y18435D01*
G37*
G36*
X170068Y18277D02*
X171053Y18435D01*
X170147Y18435D01*
X170068Y18277D01*
G37*
G36*
X169911Y18198D02*
X171053Y18435D01*
X170068Y18277D01*
X169911Y18198D01*
G37*
G36*
X170935Y18159D02*
X171053Y18435D01*
X169911Y18198D01*
X170935Y18159D01*
G37*
G36*
X169793Y18120D02*
X170935Y18159D01*
X169911Y18198D01*
X169793Y18120D01*
G37*
G36*
X168887Y18001D02*
X170935Y18159D01*
X169793Y18120D01*
X168887Y18001D01*
G37*
G36*
X168887Y18001D02*
X169793Y18120D01*
X169596Y18120D01*
X168887Y18001D01*
G37*
G36*
X168887Y18001D02*
X169596Y18120D01*
X169360Y18159D01*
X168887Y18001D01*
G37*
G36*
X168887Y18001D02*
X169360Y18159D01*
X169124Y18356D01*
X168887Y18001D01*
G37*
G36*
X168887Y18001D02*
X169124Y18356D01*
X168966Y18631D01*
X168887Y18001D01*
G37*
G36*
X168887Y18001D02*
X168966Y18631D01*
X168100Y21742D01*
X168887Y18001D01*
G37*
G36*
X170738Y17923D02*
X170935Y18159D01*
X168887Y18001D01*
X170738Y17923D01*
G37*
G36*
X169084Y17765D02*
X170738Y17923D01*
X168887Y18001D01*
X169084Y17765D01*
G37*
G36*
X170541Y17726D02*
X170738Y17923D01*
X169084Y17765D01*
X170541Y17726D01*
G37*
G36*
X169320Y17608D02*
X170541Y17726D01*
X169084Y17765D01*
X169320Y17608D01*
G37*
G36*
X170344Y17608D02*
X170541Y17726D01*
X169320Y17608D01*
X170344Y17608D01*
G37*
G36*
X168100Y17568D02*
X168887Y18001D01*
X168100Y21742D01*
X168100Y17568D01*
G37*
G36*
X168887Y17568D02*
X168887Y18001D01*
X168100Y17568D01*
X168887Y17568D01*
G37*
G36*
X169596Y17529D02*
X170344Y17608D01*
X169320Y17608D01*
X169596Y17529D01*
G37*
G36*
X170108Y17529D02*
X170344Y17608D01*
X169596Y17529D01*
X170108Y17529D01*
G37*
G36*
X169832Y17490D02*
X170108Y17529D01*
X169596Y17529D01*
X169832Y17490D01*
G37*
G36*
X167076Y19812D02*
X167076Y19812D01*
X167076Y20600D01*
X166250Y20600D01*
X166250Y19812D01*
X167076Y19812D01*
G37*
G36*
X167076Y17568D02*
X167076Y17568D01*
X167076Y18356D01*
X166250Y18356D01*
X166250Y17568D01*
X167076Y17568D01*
G37*
G36*
X184311Y15492D02*
X183996Y15531D01*
X183720Y15492D01*
X184311Y15492D01*
G37*
G36*
X183444Y15413D02*
X184311Y15492D01*
X183720Y15492D01*
X183444Y15413D01*
G37*
G36*
X184586Y15413D02*
X184311Y15492D01*
X183444Y15413D01*
X184586Y15413D01*
G37*
G36*
X183208Y15295D02*
X184586Y15413D01*
X183444Y15413D01*
X183208Y15295D01*
G37*
G36*
X184822Y15295D02*
X184586Y15413D01*
X183208Y15295D01*
X184822Y15295D01*
G37*
G36*
X183011Y15098D02*
X184822Y15295D01*
X183208Y15295D01*
X183011Y15098D01*
G37*
G36*
X185019Y15098D02*
X184822Y15295D01*
X183011Y15098D01*
X185019Y15098D01*
G37*
G36*
X183996Y14862D02*
X185019Y15098D01*
X183011Y15098D01*
X183996Y14862D01*
G37*
G36*
X183877Y14822D02*
X183996Y14862D01*
X183011Y15098D01*
X183877Y14822D01*
G37*
G36*
X182814Y14783D02*
X183877Y14822D01*
X183011Y15098D01*
X182814Y14783D01*
G37*
G36*
X183720Y14783D02*
X183877Y14822D01*
X182814Y14783D01*
X183720Y14783D01*
G37*
G36*
X184311Y14783D02*
X185019Y15098D01*
X183996Y14862D01*
X184311Y14783D01*
G37*
G36*
X185216Y14783D02*
X185019Y15098D01*
X184311Y14783D01*
X185216Y14783D01*
G37*
G36*
X183602Y14625D02*
X183720Y14783D01*
X182814Y14783D01*
X183602Y14625D01*
G37*
G36*
X184429Y14625D02*
X185216Y14783D01*
X184311Y14783D01*
X184429Y14625D01*
G37*
G36*
X184507Y14429D02*
X185216Y14783D01*
X184429Y14625D01*
X184507Y14429D01*
G37*
G36*
X185334Y14429D02*
X185216Y14783D01*
X184507Y14429D01*
X185334Y14429D01*
G37*
G36*
X182696Y14389D02*
X183602Y14625D01*
X182814Y14783D01*
X182696Y14389D01*
G37*
G36*
X183523Y14389D02*
X183602Y14625D01*
X182696Y14389D01*
X183523Y14389D01*
G37*
G36*
X183484Y14232D02*
X183523Y14389D01*
X182696Y14389D01*
X183484Y14232D01*
G37*
G36*
X184547Y14232D02*
X185334Y14429D01*
X184507Y14429D01*
X184547Y14232D01*
G37*
G36*
X183444Y13996D02*
X183484Y14232D01*
X182696Y14389D01*
X183444Y13996D01*
G37*
G36*
X184547Y13996D02*
X185334Y14429D01*
X184547Y14232D01*
X184547Y13996D01*
G37*
G36*
X185413Y13956D02*
X185334Y14429D01*
X184547Y13996D01*
X185413Y13956D01*
G37*
G36*
X182618Y13917D02*
X183444Y13996D01*
X182696Y14389D01*
X182618Y13917D01*
G37*
G36*
X184586Y13720D02*
X185413Y13956D01*
X184547Y13996D01*
X184586Y13720D01*
G37*
G36*
X185452Y13405D02*
X185413Y13956D01*
X184586Y13720D01*
X185452Y13405D01*
G37*
G36*
X182578Y13366D02*
X183444Y13996D01*
X182618Y13917D01*
X182578Y13366D01*
G37*
G36*
X183444Y13051D02*
X183444Y13996D01*
X182578Y13366D01*
X183444Y13051D01*
G37*
G36*
X184586Y13051D02*
X185452Y13405D01*
X184586Y13720D01*
X184586Y13051D01*
G37*
G36*
X182618Y12814D02*
X183444Y13051D01*
X182578Y13366D01*
X182618Y12814D01*
G37*
G36*
X185413Y12814D02*
X185452Y13405D01*
X184586Y13051D01*
X185413Y12814D01*
G37*
G36*
X184547Y12775D02*
X185413Y12814D01*
X184586Y13051D01*
X184547Y12775D01*
G37*
G36*
X183484Y12736D02*
X183444Y13051D01*
X182618Y12814D01*
X183484Y12736D01*
G37*
G36*
X184547Y12539D02*
X185413Y12814D01*
X184547Y12775D01*
X184547Y12539D01*
G37*
G36*
X183484Y12500D02*
X183484Y12736D01*
X182618Y12814D01*
X183484Y12500D01*
G37*
G36*
X184507Y12381D02*
X185413Y12814D01*
X184547Y12539D01*
X184507Y12381D01*
G37*
G36*
X185334Y12381D02*
X185413Y12814D01*
X184507Y12381D01*
X185334Y12381D01*
G37*
G36*
X182696Y12342D02*
X183484Y12500D01*
X182618Y12814D01*
X182696Y12342D01*
G37*
G36*
X183523Y12342D02*
X183484Y12500D01*
X182696Y12342D01*
X183523Y12342D01*
G37*
G36*
X183602Y12145D02*
X183523Y12342D01*
X182696Y12342D01*
X183602Y12145D01*
G37*
G36*
X184429Y12145D02*
X185334Y12381D01*
X184507Y12381D01*
X184429Y12145D01*
G37*
G36*
X183720Y11988D02*
X183602Y12145D01*
X182696Y12342D01*
X183720Y11988D01*
G37*
G36*
X184311Y11988D02*
X185334Y12381D01*
X184429Y12145D01*
X184311Y11988D01*
G37*
G36*
X185216Y11988D02*
X185334Y12381D01*
X184311Y11988D01*
X185216Y11988D01*
G37*
G36*
X182814Y11948D02*
X183720Y11988D01*
X182696Y12342D01*
X182814Y11948D01*
G37*
G36*
X183877Y11909D02*
X183720Y11988D01*
X182814Y11948D01*
X183877Y11909D01*
G37*
G36*
X184153Y11909D02*
X185216Y11988D01*
X184311Y11988D01*
X184153Y11909D01*
G37*
G36*
X185059Y11712D02*
X185216Y11988D01*
X184153Y11909D01*
X185059Y11712D01*
G37*
G36*
X185059Y11712D02*
X184153Y11909D01*
X183877Y11909D01*
X185059Y11712D01*
G37*
G36*
X185059Y11712D02*
X183877Y11909D01*
X182814Y11948D01*
X185059Y11712D01*
G37*
G36*
X183011Y11673D02*
X185059Y11712D01*
X182814Y11948D01*
X183011Y11673D01*
G37*
G36*
X184822Y11515D02*
X185059Y11712D01*
X183011Y11673D01*
X184822Y11515D01*
G37*
G36*
X183208Y11476D02*
X184822Y11515D01*
X183011Y11673D01*
X183208Y11476D01*
G37*
G36*
X183444Y11358D02*
X184822Y11515D01*
X183208Y11476D01*
X183444Y11358D01*
G37*
G36*
X184586Y11358D02*
X184822Y11515D01*
X183444Y11358D01*
X184586Y11358D01*
G37*
G36*
X183720Y11279D02*
X184586Y11358D01*
X183444Y11358D01*
X183720Y11279D01*
G37*
G36*
X184311Y11279D02*
X184586Y11358D01*
X183720Y11279D01*
X184311Y11279D01*
G37*
G36*
X183996Y11240D02*
X184311Y11279D01*
X183720Y11279D01*
X183996Y11240D01*
G37*
G36*
X179232Y12066D02*
X179232Y12066D01*
X179232Y11318D01*
X182185Y11318D01*
X182106Y11712D01*
X181909Y12106D01*
X181751Y12303D01*
X181555Y12539D01*
X181279Y12814D01*
X180964Y13129D01*
X180688Y13366D01*
X180492Y13562D01*
X180374Y13681D01*
X180255Y13799D01*
X180137Y14074D01*
X180098Y14311D01*
X180137Y14547D01*
X180255Y14704D01*
X180413Y14822D01*
X180688Y14862D01*
X180925Y14822D01*
X181082Y14704D01*
X181240Y14507D01*
X181279Y14232D01*
X182106Y14311D01*
X182066Y14625D01*
X181948Y14862D01*
X181830Y15059D01*
X181633Y15255D01*
X181200Y15452D01*
X180649Y15531D01*
X180334Y15492D01*
X180059Y15452D01*
X179822Y15334D01*
X179586Y15177D01*
X179429Y15019D01*
X179311Y14822D01*
X179271Y14586D01*
X179232Y14350D01*
X179271Y14074D01*
X179350Y13838D01*
X179468Y13562D01*
X179665Y13287D01*
X179901Y13051D01*
X180255Y12736D01*
X180570Y12460D01*
X180767Y12303D01*
X180925Y12066D01*
X179232Y12066D01*
G37*
G36*
X178562Y11318D02*
X178562Y11318D01*
X178562Y12106D01*
X177736Y12106D01*
X177736Y11318D01*
X178562Y11318D01*
G37*
G36*
X175925Y15492D02*
X175610Y15531D01*
X175334Y15492D01*
X175925Y15492D01*
G37*
G36*
X175059Y15413D02*
X175925Y15492D01*
X175334Y15492D01*
X175059Y15413D01*
G37*
G36*
X176200Y15413D02*
X175925Y15492D01*
X175059Y15413D01*
X176200Y15413D01*
G37*
G36*
X174822Y15295D02*
X176200Y15413D01*
X175059Y15413D01*
X174822Y15295D01*
G37*
G36*
X176437Y15295D02*
X176200Y15413D01*
X174822Y15295D01*
X176437Y15295D01*
G37*
G36*
X174625Y15098D02*
X176437Y15295D01*
X174822Y15295D01*
X174625Y15098D01*
G37*
G36*
X176633Y15098D02*
X176437Y15295D01*
X174625Y15098D01*
X176633Y15098D01*
G37*
G36*
X175610Y14862D02*
X176633Y15098D01*
X174625Y15098D01*
X175610Y14862D01*
G37*
G36*
X175492Y14822D02*
X175610Y14862D01*
X174625Y15098D01*
X175492Y14822D01*
G37*
G36*
X174429Y14783D02*
X175492Y14822D01*
X174625Y15098D01*
X174429Y14783D01*
G37*
G36*
X175334Y14783D02*
X175492Y14822D01*
X174429Y14783D01*
X175334Y14783D01*
G37*
G36*
X175925Y14783D02*
X176633Y15098D01*
X175610Y14862D01*
X175925Y14783D01*
G37*
G36*
X176830Y14783D02*
X176633Y15098D01*
X175925Y14783D01*
X176830Y14783D01*
G37*
G36*
X175216Y14625D02*
X175334Y14783D01*
X174429Y14783D01*
X175216Y14625D01*
G37*
G36*
X176043Y14625D02*
X176830Y14783D01*
X175925Y14783D01*
X176043Y14625D01*
G37*
G36*
X176122Y14429D02*
X176830Y14783D01*
X176043Y14625D01*
X176122Y14429D01*
G37*
G36*
X176948Y14429D02*
X176830Y14783D01*
X176122Y14429D01*
X176948Y14429D01*
G37*
G36*
X174311Y14389D02*
X175216Y14625D01*
X174429Y14783D01*
X174311Y14389D01*
G37*
G36*
X175137Y14389D02*
X175216Y14625D01*
X174311Y14389D01*
X175137Y14389D01*
G37*
G36*
X175098Y14232D02*
X175137Y14389D01*
X174311Y14389D01*
X175098Y14232D01*
G37*
G36*
X176161Y14232D02*
X176948Y14429D01*
X176122Y14429D01*
X176161Y14232D01*
G37*
G36*
X175059Y13996D02*
X175098Y14232D01*
X174311Y14389D01*
X175059Y13996D01*
G37*
G36*
X176161Y13996D02*
X176948Y14429D01*
X176161Y14232D01*
X176161Y13996D01*
G37*
G36*
X177027Y13956D02*
X176948Y14429D01*
X176161Y13996D01*
X177027Y13956D01*
G37*
G36*
X174232Y13917D02*
X175059Y13996D01*
X174311Y14389D01*
X174232Y13917D01*
G37*
G36*
X176200Y13720D02*
X177027Y13956D01*
X176161Y13996D01*
X176200Y13720D01*
G37*
G36*
X177066Y13405D02*
X177027Y13956D01*
X176200Y13720D01*
X177066Y13405D01*
G37*
G36*
X174192Y13366D02*
X175059Y13996D01*
X174232Y13917D01*
X174192Y13366D01*
G37*
G36*
X175059Y13051D02*
X175059Y13996D01*
X174192Y13366D01*
X175059Y13051D01*
G37*
G36*
X176200Y13051D02*
X177066Y13405D01*
X176200Y13720D01*
X176200Y13051D01*
G37*
G36*
X174232Y12814D02*
X175059Y13051D01*
X174192Y13366D01*
X174232Y12814D01*
G37*
G36*
X177027Y12814D02*
X177066Y13405D01*
X176200Y13051D01*
X177027Y12814D01*
G37*
G36*
X176161Y12775D02*
X177027Y12814D01*
X176200Y13051D01*
X176161Y12775D01*
G37*
G36*
X175098Y12736D02*
X175059Y13051D01*
X174232Y12814D01*
X175098Y12736D01*
G37*
G36*
X176161Y12539D02*
X177027Y12814D01*
X176161Y12775D01*
X176161Y12539D01*
G37*
G36*
X175098Y12500D02*
X175098Y12736D01*
X174232Y12814D01*
X175098Y12500D01*
G37*
G36*
X176122Y12381D02*
X177027Y12814D01*
X176161Y12539D01*
X176122Y12381D01*
G37*
G36*
X176948Y12381D02*
X177027Y12814D01*
X176122Y12381D01*
X176948Y12381D01*
G37*
G36*
X174311Y12342D02*
X175098Y12500D01*
X174232Y12814D01*
X174311Y12342D01*
G37*
G36*
X175137Y12342D02*
X175098Y12500D01*
X174311Y12342D01*
X175137Y12342D01*
G37*
G36*
X175216Y12145D02*
X175137Y12342D01*
X174311Y12342D01*
X175216Y12145D01*
G37*
G36*
X176043Y12145D02*
X176948Y12381D01*
X176122Y12381D01*
X176043Y12145D01*
G37*
G36*
X175334Y11988D02*
X175216Y12145D01*
X174311Y12342D01*
X175334Y11988D01*
G37*
G36*
X175925Y11988D02*
X176948Y12381D01*
X176043Y12145D01*
X175925Y11988D01*
G37*
G36*
X176830Y11988D02*
X176948Y12381D01*
X175925Y11988D01*
X176830Y11988D01*
G37*
G36*
X174429Y11948D02*
X175334Y11988D01*
X174311Y12342D01*
X174429Y11948D01*
G37*
G36*
X175492Y11909D02*
X175334Y11988D01*
X174429Y11948D01*
X175492Y11909D01*
G37*
G36*
X175767Y11909D02*
X176830Y11988D01*
X175925Y11988D01*
X175767Y11909D01*
G37*
G36*
X176673Y11712D02*
X176830Y11988D01*
X175767Y11909D01*
X176673Y11712D01*
G37*
G36*
X176673Y11712D02*
X175767Y11909D01*
X175492Y11909D01*
X176673Y11712D01*
G37*
G36*
X176673Y11712D02*
X175492Y11909D01*
X174429Y11948D01*
X176673Y11712D01*
G37*
G36*
X174625Y11673D02*
X176673Y11712D01*
X174429Y11948D01*
X174625Y11673D01*
G37*
G36*
X176437Y11515D02*
X176673Y11712D01*
X174625Y11673D01*
X176437Y11515D01*
G37*
G36*
X174822Y11476D02*
X176437Y11515D01*
X174625Y11673D01*
X174822Y11476D01*
G37*
G36*
X175059Y11358D02*
X176437Y11515D01*
X174822Y11476D01*
X175059Y11358D01*
G37*
G36*
X176200Y11358D02*
X176437Y11515D01*
X175059Y11358D01*
X176200Y11358D01*
G37*
G36*
X175334Y11279D02*
X176200Y11358D01*
X175059Y11358D01*
X175334Y11279D01*
G37*
G36*
X175925Y11279D02*
X176200Y11358D01*
X175334Y11279D01*
X175925Y11279D01*
G37*
G36*
X175610Y11240D02*
X175925Y11279D01*
X175334Y11279D01*
X175610Y11240D01*
G37*
G36*
X173720Y12421D02*
X173720Y12421D01*
X172933Y12539D01*
X172854Y12263D01*
X172736Y12066D01*
X172539Y11948D01*
X172303Y11909D01*
X172066Y11948D01*
X171870Y12106D01*
X171751Y12342D01*
X171712Y12618D01*
X171751Y12893D01*
X171870Y13090D01*
X172066Y13248D01*
X172263Y13287D01*
X172657Y13208D01*
X172578Y13917D01*
X172303Y13956D01*
X172066Y14035D01*
X171948Y14192D01*
X171909Y14429D01*
X171948Y14586D01*
X172027Y14744D01*
X172185Y14822D01*
X172381Y14862D01*
X172539Y14822D01*
X172736Y14744D01*
X172814Y14586D01*
X172893Y14350D01*
X173641Y14468D01*
X173523Y14783D01*
X173405Y15059D01*
X173208Y15255D01*
X172972Y15413D01*
X172657Y15492D01*
X172303Y15531D01*
X172027Y15492D01*
X171751Y15452D01*
X171555Y15334D01*
X171358Y15177D01*
X171122Y14822D01*
X171043Y14468D01*
X171082Y14232D01*
X171200Y13996D01*
X171397Y13799D01*
X171673Y13602D01*
X171358Y13484D01*
X171082Y13248D01*
X170885Y12933D01*
X170846Y12578D01*
X170885Y12303D01*
X170964Y12066D01*
X171082Y11830D01*
X171279Y11633D01*
X171476Y11476D01*
X171712Y11318D01*
X171988Y11279D01*
X172303Y11240D01*
X172578Y11240D01*
X172814Y11318D01*
X173051Y11437D01*
X173287Y11555D01*
X173444Y11751D01*
X173562Y11948D01*
X173681Y12185D01*
X173720Y12421D01*
X173720Y12421D01*
G37*
G36*
X170177Y11318D02*
X170177Y11318D01*
X170177Y12106D01*
X169350Y12106D01*
X169350Y11318D01*
X170177Y11318D01*
G37*
G36*
X165807Y12066D02*
X165807Y12066D01*
X165807Y11318D01*
X168759Y11318D01*
X168681Y11712D01*
X168484Y12106D01*
X168326Y12303D01*
X168129Y12539D01*
X167854Y12814D01*
X167539Y13129D01*
X167263Y13366D01*
X167066Y13562D01*
X166948Y13681D01*
X166830Y13799D01*
X166712Y14074D01*
X166673Y14311D01*
X166712Y14547D01*
X166830Y14704D01*
X166988Y14822D01*
X167263Y14862D01*
X167500Y14822D01*
X167657Y14704D01*
X167814Y14507D01*
X167854Y14232D01*
X168681Y14311D01*
X168641Y14625D01*
X168523Y14862D01*
X168405Y15059D01*
X168208Y15255D01*
X167775Y15452D01*
X167224Y15531D01*
X166909Y15492D01*
X166633Y15452D01*
X166397Y15334D01*
X166161Y15177D01*
X166003Y15019D01*
X165885Y14822D01*
X165846Y14586D01*
X165807Y14350D01*
X165846Y14074D01*
X165925Y13838D01*
X166043Y13562D01*
X166240Y13287D01*
X166476Y13051D01*
X166830Y12736D01*
X167145Y12460D01*
X167342Y12303D01*
X167500Y12066D01*
X165807Y12066D01*
G37*
G36*
X164192Y15492D02*
X163877Y15531D01*
X163602Y15492D01*
X164192Y15492D01*
G37*
G36*
X163326Y15413D02*
X164192Y15492D01*
X163602Y15492D01*
X163326Y15413D01*
G37*
G36*
X164468Y15413D02*
X164192Y15492D01*
X163326Y15413D01*
X164468Y15413D01*
G37*
G36*
X163090Y15295D02*
X164468Y15413D01*
X163326Y15413D01*
X163090Y15295D01*
G37*
G36*
X164704Y15295D02*
X164468Y15413D01*
X163090Y15295D01*
X164704Y15295D01*
G37*
G36*
X162893Y15098D02*
X164704Y15295D01*
X163090Y15295D01*
X162893Y15098D01*
G37*
G36*
X164901Y15098D02*
X164704Y15295D01*
X162893Y15098D01*
X164901Y15098D01*
G37*
G36*
X163877Y14862D02*
X164901Y15098D01*
X162893Y15098D01*
X163877Y14862D01*
G37*
G36*
X163759Y14822D02*
X163877Y14862D01*
X162893Y15098D01*
X163759Y14822D01*
G37*
G36*
X162696Y14783D02*
X163759Y14822D01*
X162893Y15098D01*
X162696Y14783D01*
G37*
G36*
X163602Y14783D02*
X163759Y14822D01*
X162696Y14783D01*
X163602Y14783D01*
G37*
G36*
X164192Y14783D02*
X164901Y15098D01*
X163877Y14862D01*
X164192Y14783D01*
G37*
G36*
X165098Y14783D02*
X164901Y15098D01*
X164192Y14783D01*
X165098Y14783D01*
G37*
G36*
X163484Y14625D02*
X163602Y14783D01*
X162696Y14783D01*
X163484Y14625D01*
G37*
G36*
X164311Y14625D02*
X165098Y14783D01*
X164192Y14783D01*
X164311Y14625D01*
G37*
G36*
X164389Y14429D02*
X165098Y14783D01*
X164311Y14625D01*
X164389Y14429D01*
G37*
G36*
X165216Y14429D02*
X165098Y14783D01*
X164389Y14429D01*
X165216Y14429D01*
G37*
G36*
X162578Y14389D02*
X163484Y14625D01*
X162696Y14783D01*
X162578Y14389D01*
G37*
G36*
X163405Y14389D02*
X163484Y14625D01*
X162578Y14389D01*
X163405Y14389D01*
G37*
G36*
X163366Y14232D02*
X163405Y14389D01*
X162578Y14389D01*
X163366Y14232D01*
G37*
G36*
X164429Y14232D02*
X165216Y14429D01*
X164389Y14429D01*
X164429Y14232D01*
G37*
G36*
X163326Y13996D02*
X163366Y14232D01*
X162578Y14389D01*
X163326Y13996D01*
G37*
G36*
X164429Y13996D02*
X165216Y14429D01*
X164429Y14232D01*
X164429Y13996D01*
G37*
G36*
X165295Y13956D02*
X165216Y14429D01*
X164429Y13996D01*
X165295Y13956D01*
G37*
G36*
X162500Y13917D02*
X163326Y13996D01*
X162578Y14389D01*
X162500Y13917D01*
G37*
G36*
X164468Y13720D02*
X165295Y13956D01*
X164429Y13996D01*
X164468Y13720D01*
G37*
G36*
X165334Y13405D02*
X165295Y13956D01*
X164468Y13720D01*
X165334Y13405D01*
G37*
G36*
X162460Y13366D02*
X163326Y13996D01*
X162500Y13917D01*
X162460Y13366D01*
G37*
G36*
X163326Y13051D02*
X163326Y13996D01*
X162460Y13366D01*
X163326Y13051D01*
G37*
G36*
X164468Y13051D02*
X165334Y13405D01*
X164468Y13720D01*
X164468Y13051D01*
G37*
G36*
X162500Y12814D02*
X163326Y13051D01*
X162460Y13366D01*
X162500Y12814D01*
G37*
G36*
X165295Y12814D02*
X165334Y13405D01*
X164468Y13051D01*
X165295Y12814D01*
G37*
G36*
X164429Y12775D02*
X165295Y12814D01*
X164468Y13051D01*
X164429Y12775D01*
G37*
G36*
X163366Y12736D02*
X163326Y13051D01*
X162500Y12814D01*
X163366Y12736D01*
G37*
G36*
X164429Y12539D02*
X165295Y12814D01*
X164429Y12775D01*
X164429Y12539D01*
G37*
G36*
X163366Y12500D02*
X163366Y12736D01*
X162500Y12814D01*
X163366Y12500D01*
G37*
G36*
X164389Y12381D02*
X165295Y12814D01*
X164429Y12539D01*
X164389Y12381D01*
G37*
G36*
X165216Y12381D02*
X165295Y12814D01*
X164389Y12381D01*
X165216Y12381D01*
G37*
G36*
X162578Y12342D02*
X163366Y12500D01*
X162500Y12814D01*
X162578Y12342D01*
G37*
G36*
X163405Y12342D02*
X163366Y12500D01*
X162578Y12342D01*
X163405Y12342D01*
G37*
G36*
X163484Y12145D02*
X163405Y12342D01*
X162578Y12342D01*
X163484Y12145D01*
G37*
G36*
X164311Y12145D02*
X165216Y12381D01*
X164389Y12381D01*
X164311Y12145D01*
G37*
G36*
X163602Y11988D02*
X163484Y12145D01*
X162578Y12342D01*
X163602Y11988D01*
G37*
G36*
X164192Y11988D02*
X165216Y12381D01*
X164311Y12145D01*
X164192Y11988D01*
G37*
G36*
X165098Y11988D02*
X165216Y12381D01*
X164192Y11988D01*
X165098Y11988D01*
G37*
G36*
X162696Y11948D02*
X163602Y11988D01*
X162578Y12342D01*
X162696Y11948D01*
G37*
G36*
X163759Y11909D02*
X163602Y11988D01*
X162696Y11948D01*
X163759Y11909D01*
G37*
G36*
X164035Y11909D02*
X165098Y11988D01*
X164192Y11988D01*
X164035Y11909D01*
G37*
G36*
X164940Y11712D02*
X165098Y11988D01*
X164035Y11909D01*
X164940Y11712D01*
G37*
G36*
X164940Y11712D02*
X164035Y11909D01*
X163759Y11909D01*
X164940Y11712D01*
G37*
G36*
X164940Y11712D02*
X163759Y11909D01*
X162696Y11948D01*
X164940Y11712D01*
G37*
G36*
X162893Y11673D02*
X164940Y11712D01*
X162696Y11948D01*
X162893Y11673D01*
G37*
G36*
X164704Y11515D02*
X164940Y11712D01*
X162893Y11673D01*
X164704Y11515D01*
G37*
G36*
X163090Y11476D02*
X164704Y11515D01*
X162893Y11673D01*
X163090Y11476D01*
G37*
G36*
X163326Y11358D02*
X164704Y11515D01*
X163090Y11476D01*
X163326Y11358D01*
G37*
G36*
X164468Y11358D02*
X164704Y11515D01*
X163326Y11358D01*
X164468Y11358D01*
G37*
G36*
X163602Y11279D02*
X164468Y11358D01*
X163326Y11358D01*
X163602Y11279D01*
G37*
G36*
X164192Y11279D02*
X164468Y11358D01*
X163602Y11279D01*
X164192Y11279D01*
G37*
G36*
X163877Y11240D02*
X164192Y11279D01*
X163602Y11279D01*
X163877Y11240D01*
G37*
G36*
X159114Y12066D02*
X159114Y12066D01*
X159114Y11318D01*
X162066Y11318D01*
X161988Y11712D01*
X161791Y12106D01*
X161633Y12303D01*
X161437Y12539D01*
X161161Y12814D01*
X160846Y13129D01*
X160570Y13366D01*
X160374Y13562D01*
X160255Y13681D01*
X160137Y13799D01*
X160019Y14074D01*
X159980Y14311D01*
X160019Y14547D01*
X160137Y14704D01*
X160295Y14822D01*
X160570Y14862D01*
X160807Y14822D01*
X160964Y14704D01*
X161122Y14507D01*
X161161Y14232D01*
X161988Y14311D01*
X161948Y14625D01*
X161830Y14862D01*
X161712Y15059D01*
X161515Y15255D01*
X161082Y15452D01*
X160531Y15531D01*
X160216Y15492D01*
X159940Y15452D01*
X159704Y15334D01*
X159468Y15177D01*
X159311Y15019D01*
X159192Y14822D01*
X159153Y14586D01*
X159114Y14350D01*
X159153Y14074D01*
X159232Y13838D01*
X159350Y13562D01*
X159547Y13287D01*
X159783Y13051D01*
X160137Y12736D01*
X160452Y12460D01*
X160649Y12303D01*
X160807Y12066D01*
X159114Y12066D01*
G37*
G36*
X156555Y15452D02*
X157381Y15492D01*
X157027Y15531D01*
X156555Y15452D01*
G37*
G36*
X157657Y15413D02*
X157381Y15492D01*
X156555Y15452D01*
X157657Y15413D01*
G37*
G36*
X156200Y15255D02*
X157657Y15413D01*
X156555Y15452D01*
X156200Y15255D01*
G37*
G36*
X157933Y15255D02*
X157657Y15413D01*
X156200Y15255D01*
X157933Y15255D01*
G37*
G36*
X158208Y15019D02*
X157933Y15255D01*
X156200Y15255D01*
X158208Y15019D01*
G37*
G36*
X155925Y14940D02*
X158208Y15019D01*
X156200Y15255D01*
X155925Y14940D01*
G37*
G36*
X157106Y14862D02*
X158208Y15019D01*
X155925Y14940D01*
X157106Y14862D01*
G37*
G36*
X156870Y14822D02*
X157106Y14862D01*
X155925Y14940D01*
X156870Y14822D01*
G37*
G36*
X157342Y14783D02*
X158208Y15019D01*
X157106Y14862D01*
X157342Y14783D01*
G37*
G36*
X156712Y14744D02*
X156870Y14822D01*
X155925Y14940D01*
X156712Y14744D01*
G37*
G36*
X158405Y14704D02*
X158208Y15019D01*
X157342Y14783D01*
X158405Y14704D01*
G37*
G36*
X157578Y14625D02*
X158405Y14704D01*
X157342Y14783D01*
X157578Y14625D01*
G37*
G36*
X156594Y14586D02*
X156712Y14744D01*
X155925Y14940D01*
X156594Y14586D01*
G37*
G36*
X155767Y14468D02*
X156594Y14586D01*
X155925Y14940D01*
X155767Y14468D01*
G37*
G36*
X157657Y14468D02*
X158405Y14704D01*
X157578Y14625D01*
X157657Y14468D01*
G37*
G36*
X156555Y14389D02*
X156594Y14586D01*
X155767Y14468D01*
X156555Y14389D01*
G37*
G36*
X158523Y14350D02*
X158405Y14704D01*
X157657Y14468D01*
X158523Y14350D01*
G37*
G36*
X157736Y14271D02*
X158523Y14350D01*
X157657Y14468D01*
X157736Y14271D01*
G37*
G36*
X157263Y13996D02*
X157027Y14035D01*
X156751Y13996D01*
X157263Y13996D01*
G37*
G36*
X157814Y13996D02*
X158523Y14350D01*
X157736Y14271D01*
X157814Y13996D01*
G37*
G36*
X157460Y13956D02*
X157263Y13996D01*
X156751Y13996D01*
X157460Y13956D01*
G37*
G36*
X156515Y13917D02*
X157460Y13956D01*
X156751Y13996D01*
X156515Y13917D01*
G37*
G36*
X158602Y13877D02*
X158523Y14350D01*
X157814Y13996D01*
X158602Y13877D01*
G37*
G36*
X157657Y13838D02*
X157460Y13956D01*
X156515Y13917D01*
X157657Y13838D01*
G37*
G36*
X156279Y13799D02*
X157657Y13838D01*
X156515Y13917D01*
X156279Y13799D01*
G37*
G36*
X157854Y13681D02*
X157657Y13838D01*
X156279Y13799D01*
X157854Y13681D01*
G37*
G36*
X157854Y13681D02*
X158602Y13877D01*
X157814Y13996D01*
X157854Y13681D01*
G37*
G36*
X156082Y13641D02*
X157854Y13681D01*
X156279Y13799D01*
X156082Y13641D01*
G37*
G36*
X155925Y13444D02*
X157854Y13681D01*
X156082Y13641D01*
X155925Y13444D01*
G37*
G36*
X157145Y13444D02*
X158602Y13877D01*
X157854Y13681D01*
X157145Y13444D01*
G37*
G36*
X157145Y13444D02*
X157854Y13681D01*
X155925Y13444D01*
X157145Y13444D01*
G37*
G36*
X156909Y13405D02*
X157145Y13444D01*
X155925Y13444D01*
X156909Y13405D01*
G37*
G36*
X157381Y13405D02*
X158602Y13877D01*
X157145Y13444D01*
X157381Y13405D01*
G37*
G36*
X158641Y13366D02*
X158602Y13877D01*
X157381Y13405D01*
X158641Y13366D01*
G37*
G36*
X156712Y13248D02*
X156909Y13405D01*
X155925Y13444D01*
X156712Y13248D01*
G37*
G36*
X157578Y13248D02*
X158641Y13366D01*
X157381Y13405D01*
X157578Y13248D01*
G37*
G36*
X155767Y13208D02*
X156712Y13248D01*
X155925Y13444D01*
X155767Y13208D01*
G37*
G36*
X157736Y13051D02*
X158641Y13366D01*
X157578Y13248D01*
X157736Y13051D01*
G37*
G36*
X156555Y13011D02*
X156712Y13248D01*
X155767Y13208D01*
X156555Y13011D01*
G37*
G36*
X158602Y12814D02*
X158641Y13366D01*
X157736Y13051D01*
X158602Y12814D01*
G37*
G36*
X157775Y12736D02*
X158602Y12814D01*
X157736Y13051D01*
X157775Y12736D01*
G37*
G36*
X155688Y12657D02*
X156555Y13011D01*
X155767Y13208D01*
X155688Y12657D01*
G37*
G36*
X156515Y12657D02*
X156555Y13011D01*
X155688Y12657D01*
X156515Y12657D01*
G37*
G36*
X157736Y12381D02*
X158602Y12814D01*
X157775Y12736D01*
X157736Y12381D01*
G37*
G36*
X158523Y12381D02*
X158602Y12814D01*
X157736Y12381D01*
X158523Y12381D01*
G37*
G36*
X156555Y12303D02*
X156515Y12657D01*
X155688Y12657D01*
X156555Y12303D01*
G37*
G36*
X157578Y12106D02*
X158523Y12381D01*
X157736Y12381D01*
X157578Y12106D01*
G37*
G36*
X155767Y12066D02*
X156555Y12303D01*
X155688Y12657D01*
X155767Y12066D01*
G37*
G36*
X156673Y12066D02*
X156555Y12303D01*
X155767Y12066D01*
X156673Y12066D01*
G37*
G36*
X158405Y12027D02*
X158523Y12381D01*
X157578Y12106D01*
X158405Y12027D01*
G37*
G36*
X156870Y11948D02*
X156673Y12066D01*
X155767Y12066D01*
X156870Y11948D01*
G37*
G36*
X157342Y11948D02*
X158405Y12027D01*
X157578Y12106D01*
X157342Y11948D01*
G37*
G36*
X157106Y11909D02*
X156870Y11948D01*
X155767Y12066D01*
X157106Y11909D01*
G37*
G36*
X157106Y11909D02*
X158405Y12027D01*
X157342Y11948D01*
X157106Y11909D01*
G37*
G36*
X155925Y11830D02*
X157106Y11909D01*
X155767Y12066D01*
X155925Y11830D01*
G37*
G36*
X158208Y11712D02*
X158405Y12027D01*
X157106Y11909D01*
X158208Y11712D01*
G37*
G36*
X158208Y11712D02*
X157106Y11909D01*
X155925Y11830D01*
X158208Y11712D01*
G37*
G36*
X156082Y11633D02*
X158208Y11712D01*
X155925Y11830D01*
X156082Y11633D01*
G37*
G36*
X157972Y11515D02*
X158208Y11712D01*
X156082Y11633D01*
X157972Y11515D01*
G37*
G36*
X156318Y11437D02*
X157972Y11515D01*
X156082Y11633D01*
X156318Y11437D01*
G37*
G36*
X157736Y11358D02*
X157972Y11515D01*
X156318Y11437D01*
X157736Y11358D01*
G37*
G36*
X156555Y11318D02*
X157736Y11358D01*
X156318Y11437D01*
X156555Y11318D01*
G37*
G36*
X156791Y11279D02*
X157736Y11358D01*
X156555Y11318D01*
X156791Y11279D01*
G37*
G36*
X157421Y11279D02*
X157736Y11358D01*
X156791Y11279D01*
X157421Y11279D01*
G37*
G36*
X157106Y11240D02*
X157421Y11279D01*
X156791Y11279D01*
X157106Y11240D01*
G37*
M02*
