%FSLAX35Y35*%
%MOIN*%
G04 16=Kupferoben/CoppertopL1(X.Top)*
%ADD10C,0.00591*%
%ADD11C,0.00256*%
%ADD12C,0.00295*%
%ADD13C,0.00472*%
%ADD14C,0.00512*%
%ADD15C,0.00600*%
%ADD16C,0.00768*%
%ADD17C,0.00787*%
%ADD18C,0.01024*%
%ADD19C,0.01181*%
%ADD20C,0.01575*%
%ADD21C,0.01969*%
%ADD22C,0.02362*%
%ADD23C,0.07874*%
%AMR_24*21,1,0.00787,0.00787,0,0,0.000*%
%ADD24R_24*%
%AMR_25*21,1,0.02100,0.02100,0,0,0.000*%
%ADD25R_25*%
%AMR_26*21,1,0.02625,0.02625,0,0,0.000*%
%ADD26R_26*%
%AMR_27*21,1,0.05000,0.05000,0,0,270.000*%
%ADD27R_27*%
%AMR_28*21,1,0.07087,0.07087,0,0,0.000*%
%ADD28R_28*%
%AMOCT_29*4,1,8,0.023622,0.011811,0.011811,0.023622,-0.011811,0.023622,-0.023622,0.011811,-0.023622,-0.011811,-0.011811,-0.023622,0.011811,-0.023622,0.023622,-0.011811,0.023622,0.011811,0.000*%
%ADD29OCT_29*%
%AMOCT_30*4,1,8,0.035433,0.017717,0.017717,0.035433,-0.017717,0.035433,-0.035433,0.017717,-0.035433,-0.017717,-0.017717,-0.035433,0.017717,-0.035433,0.035433,-0.017717,0.035433,0.017717,0.000*%
%ADD30OCT_30*%
%AMOCT_31*4,1,8,0.035433,0.017717,0.017717,0.035433,-0.017717,0.035433,-0.035433,0.017717,-0.035433,-0.017717,-0.017717,-0.035433,0.017717,-0.035433,0.035433,-0.017717,0.035433,0.017717,180.000*%
%ADD31OCT_31*%
%AMOCT_32*4,1,8,0.045276,0.022638,0.022638,0.045276,-0.022638,0.045276,-0.045276,0.022638,-0.045276,-0.022638,-0.022638,-0.045276,0.022638,-0.045276,0.045276,-0.022638,0.045276,0.022638,90.000*%
%ADD32OCT_32*%
%AMOCT_33*4,1,8,0.078740,0.012500,0.066240,0.025000,-0.066240,0.025000,-0.078740,0.012500,-0.078740,-0.012500,-0.066240,-0.025000,0.066240,-0.025000,0.078740,-0.012500,0.078740,0.012500,0.000*%
%ADD33OCT_33*%
%AMOCT_34*4,1,8,0.078740,0.014764,0.063976,0.029528,-0.063976,0.029528,-0.078740,0.014764,-0.078740,-0.014764,-0.063976,-0.029528,0.063976,-0.029528,0.078740,-0.014764,0.078740,0.014764,0.000*%
%ADD34OCT_34*%
G54D21*
X111938Y105868D02*
X109888Y103818D01*
X89438Y103818D01*
X111938Y105868D02*
X189888Y105868D01*
X196938Y98818D01*
X196938Y85068D01*
X78925Y26564D02*
X79460Y26564D01*
X75775Y29714D02*
X76310Y29714D01*
X85775Y29714D02*
X110602Y29714D01*
X72626Y32864D02*
X73161Y32864D01*
X82626Y32864D02*
X113751Y32864D01*
X69476Y36013D02*
X70011Y36013D01*
X79476Y36013D02*
X116901Y36013D01*
X67785Y39163D02*
X68592Y39163D01*
X76327Y39163D02*
X81908Y39163D01*
X96969Y39163D02*
X120050Y39163D01*
X67785Y42312D02*
X68592Y42312D01*
X75285Y42312D02*
X79399Y42312D01*
X99478Y42312D02*
X123200Y42312D01*
X67785Y45462D02*
X68592Y45462D01*
X75285Y45462D02*
X79399Y45462D01*
X99478Y45462D02*
X124842Y45462D01*
X67785Y48612D02*
X68592Y48612D01*
X75285Y48612D02*
X124842Y48612D01*
X67785Y51761D02*
X68592Y51761D01*
X75285Y51761D02*
X79399Y51761D01*
X99478Y51761D02*
X124842Y51761D01*
X67785Y54911D02*
X68592Y54911D01*
X75285Y54911D02*
X79399Y54911D01*
X99478Y54911D02*
X112480Y54911D01*
X67785Y58061D02*
X68592Y58061D01*
X75285Y58061D02*
X81494Y58061D01*
X97383Y58061D02*
X112480Y58061D01*
X67785Y61210D02*
X68592Y61210D01*
X75285Y61210D02*
X79860Y61210D01*
X99063Y61210D02*
X112480Y61210D01*
X67785Y64360D02*
X68592Y64360D01*
X75285Y64360D02*
X79399Y64360D01*
X102212Y64360D02*
X113581Y64360D01*
X67785Y67509D02*
X68592Y67509D01*
X77862Y67509D02*
X80943Y67509D01*
X105362Y67509D02*
X112480Y67509D01*
X68512Y70659D02*
X71546Y70659D01*
X98465Y70659D02*
X99046Y70659D01*
X108512Y70659D02*
X112480Y70659D01*
X61535Y73809D02*
X62196Y73809D01*
X71661Y73809D02*
X74696Y73809D01*
X99478Y73809D02*
X102196Y73809D01*
X111661Y73809D02*
X114801Y73809D01*
X121576Y73809D02*
X124801Y73809D01*
X131576Y73809D02*
X134801Y73809D01*
X141576Y73809D02*
X144801Y73809D01*
X61535Y76958D02*
X65346Y76958D01*
X74811Y76958D02*
X77846Y76958D01*
X98485Y76958D02*
X105346Y76958D01*
X114811Y76958D02*
X144066Y76958D01*
X61535Y80108D02*
X68495Y80108D01*
X77960Y80108D02*
X80963Y80108D01*
X97914Y80108D02*
X108495Y80108D01*
X61535Y83257D02*
X71645Y83257D01*
X99478Y83257D02*
X109644Y83257D01*
X61535Y86407D02*
X74794Y86407D01*
X99036Y86407D02*
X107117Y86407D01*
X61535Y89557D02*
X81514Y89557D01*
X97363Y89557D02*
X103968Y89557D01*
X61535Y92706D02*
X79399Y92706D01*
X61535Y95856D02*
X79399Y95856D01*
X61535Y99005D02*
X80725Y99005D01*
X61535Y102155D02*
X78612Y102155D01*
X61535Y105305D02*
X78612Y105305D01*
X60785Y108454D02*
X80548Y108454D01*
X57636Y111604D02*
X79467Y111604D01*
X54486Y114753D02*
X79399Y114753D01*
X26290Y117903D02*
X81337Y117903D01*
X97540Y117903D02*
X107511Y117903D01*
X116366Y117903D02*
X188359Y117903D01*
X25269Y121053D02*
X186108Y121053D01*
X26475Y124202D02*
X184902Y124202D01*
X26955Y127352D02*
X184422Y127352D01*
X26738Y130501D02*
X184639Y130501D01*
X25817Y133651D02*
X185560Y133651D01*
X24053Y136801D02*
X187324Y136801D01*
X20831Y139950D02*
X190546Y139950D01*
X16419Y142100D02*
X16419Y142716D01*
X19569Y140761D02*
X19569Y142716D01*
X22718Y138347D02*
X22718Y142716D01*
X25868Y118325D02*
X25868Y122365D01*
X25868Y133539D02*
X25868Y142716D01*
X29018Y117165D02*
X29018Y142716D01*
X32167Y117165D02*
X32167Y142716D01*
X35317Y117165D02*
X35317Y142716D01*
X38467Y117165D02*
X38467Y142716D01*
X41616Y117165D02*
X41616Y142716D01*
X44766Y117165D02*
X44766Y142716D01*
X47915Y117165D02*
X47915Y142716D01*
X51065Y117165D02*
X51065Y142716D01*
X54215Y115025D02*
X54215Y142716D01*
X57364Y111875D02*
X57364Y142716D01*
X60514Y108726D02*
X60514Y142716D01*
X63663Y75276D02*
X63663Y142716D01*
X66813Y78425D02*
X66813Y142716D01*
X69963Y35527D02*
X69963Y36062D01*
X69963Y69075D02*
X69963Y72110D01*
X69963Y81575D02*
X69963Y142716D01*
X73112Y32377D02*
X73112Y32912D01*
X73112Y72225D02*
X73112Y75259D01*
X73112Y84725D02*
X73112Y142716D01*
X76262Y29228D02*
X76262Y29762D01*
X76262Y39228D02*
X76262Y65909D01*
X76262Y75374D02*
X76262Y78409D01*
X76262Y87165D02*
X76262Y142716D01*
X79411Y26078D02*
X79411Y26613D01*
X79411Y36078D02*
X79411Y41659D01*
X79411Y45978D02*
X79411Y51659D01*
X79411Y55978D02*
X79411Y61659D01*
X79411Y65978D02*
X79411Y69059D01*
X79411Y77165D02*
X79411Y80472D01*
X79411Y87165D02*
X79411Y91659D01*
X79411Y95978D02*
X79411Y100319D01*
X79411Y107318D02*
X79411Y111659D01*
X79411Y115978D02*
X79411Y142716D01*
X82561Y23415D02*
X82561Y23463D01*
X82561Y32928D02*
X82561Y39153D01*
X82561Y48484D02*
X82561Y49153D01*
X82561Y58484D02*
X82561Y59153D01*
X82561Y68484D02*
X82561Y69153D01*
X82561Y78484D02*
X82561Y79153D01*
X82561Y88484D02*
X82561Y89153D01*
X82561Y118484D02*
X82561Y142716D01*
X85711Y29779D02*
X85711Y39153D01*
X85711Y48484D02*
X85711Y49153D01*
X85711Y58484D02*
X85711Y59153D01*
X85711Y68484D02*
X85711Y69153D01*
X85711Y78484D02*
X85711Y79153D01*
X85711Y88484D02*
X85711Y89153D01*
X85711Y118484D02*
X85711Y142716D01*
X88860Y29665D02*
X88860Y39153D01*
X88860Y48484D02*
X88860Y49153D01*
X88860Y58484D02*
X88860Y59153D01*
X88860Y68484D02*
X88860Y69153D01*
X88860Y78484D02*
X88860Y79153D01*
X88860Y88484D02*
X88860Y89153D01*
X88860Y118484D02*
X88860Y142716D01*
X92010Y29665D02*
X92010Y39153D01*
X92010Y48484D02*
X92010Y49153D01*
X92010Y58484D02*
X92010Y59153D01*
X92010Y68484D02*
X92010Y69153D01*
X92010Y78484D02*
X92010Y79153D01*
X92010Y88484D02*
X92010Y89153D01*
X92010Y118484D02*
X92010Y142716D01*
X95159Y29665D02*
X95159Y39153D01*
X95159Y48484D02*
X95159Y49153D01*
X95159Y58484D02*
X95159Y59153D01*
X95159Y68484D02*
X95159Y69153D01*
X95159Y78484D02*
X95159Y79153D01*
X95159Y88484D02*
X95159Y89153D01*
X95159Y118484D02*
X95159Y142716D01*
X98309Y29665D02*
X98309Y40503D01*
X98309Y47134D02*
X98309Y50503D01*
X98309Y57134D02*
X98309Y60472D01*
X98309Y69922D02*
X98309Y70503D01*
X98309Y77134D02*
X98309Y80503D01*
X98309Y87134D02*
X98309Y90472D01*
X98309Y117134D02*
X98309Y142716D01*
X101459Y29665D02*
X101459Y63606D01*
X101459Y73071D02*
X101459Y90472D01*
X101459Y116968D02*
X101459Y142716D01*
X104608Y29665D02*
X104608Y66756D01*
X104608Y76221D02*
X104608Y88916D01*
X104608Y116968D02*
X104608Y142716D01*
X107758Y29665D02*
X107758Y69905D01*
X107758Y79370D02*
X107758Y85143D01*
X107758Y118150D02*
X107758Y142716D01*
X110907Y30020D02*
X110907Y73055D01*
X110907Y82520D02*
X110907Y83041D01*
X110907Y118934D02*
X110907Y142716D01*
X114057Y33170D02*
X114057Y53110D01*
X114057Y64527D02*
X114057Y64573D01*
X114057Y73064D02*
X114057Y76204D01*
X114057Y118934D02*
X114057Y142716D01*
X117207Y36319D02*
X117207Y53110D01*
X117207Y74527D02*
X117207Y77972D01*
X117207Y116968D02*
X117207Y142716D01*
X120356Y39469D02*
X120356Y53110D01*
X120356Y74527D02*
X120356Y77972D01*
X120356Y116968D02*
X120356Y142716D01*
X123506Y42618D02*
X123506Y53987D01*
X123506Y72513D02*
X123506Y77972D01*
X123506Y116968D02*
X123506Y142716D01*
X126655Y74527D02*
X126655Y77972D01*
X126655Y116968D02*
X126655Y142716D01*
X129805Y74527D02*
X129805Y77972D01*
X129805Y116968D02*
X129805Y142716D01*
X132955Y72429D02*
X132955Y77972D01*
X132955Y116968D02*
X132955Y142716D01*
X136104Y74527D02*
X136104Y77972D01*
X136104Y116968D02*
X136104Y142716D01*
X139254Y74527D02*
X139254Y77972D01*
X139254Y116968D02*
X139254Y142716D01*
X142404Y72981D02*
X142404Y77972D01*
X142404Y116968D02*
X142404Y142716D01*
X145553Y116968D02*
X145553Y142716D01*
X148703Y116968D02*
X148703Y142716D01*
X151852Y116968D02*
X151852Y142716D01*
X155002Y116968D02*
X155002Y142716D01*
X158152Y116968D02*
X158152Y142716D01*
X161301Y116968D02*
X161301Y142716D01*
X164451Y116968D02*
X164451Y142716D01*
X167600Y116968D02*
X167600Y142716D01*
X170750Y116968D02*
X170750Y142716D01*
X173900Y116968D02*
X173900Y142716D01*
X177049Y116968D02*
X177049Y142716D01*
X180199Y116968D02*
X180199Y142716D01*
X183348Y116968D02*
X183348Y142716D01*
X186498Y116968D02*
X186498Y120390D01*
X186498Y135515D02*
X186498Y142716D01*
X189648Y139222D02*
X189648Y142716D01*
X192797Y141267D02*
X192797Y142716D01*
X195947Y142391D02*
X195947Y142716D01*
X21332Y8070D02*
X190045Y8070D01*
X24299Y11220D02*
X187078Y11220D01*
X25992Y14370D02*
X72905Y14370D01*
X122222Y14370D02*
X185385Y14370D01*
X26793Y17519D02*
X69755Y17519D01*
X125372Y17519D02*
X184584Y17519D01*
X26952Y20669D02*
X66605Y20669D01*
X128521Y20669D02*
X184424Y20669D01*
X26362Y23818D02*
X63456Y23818D01*
X131671Y23818D02*
X156198Y23818D01*
X162679Y23818D02*
X176198Y23818D01*
X182679Y23818D02*
X185015Y23818D01*
X213370Y23818D02*
X213956Y23818D01*
X25058Y26968D02*
X60306Y26968D01*
X134821Y26968D02*
X153048Y26968D01*
X165829Y26968D02*
X173048Y26968D01*
X185829Y26968D02*
X186319Y26968D01*
X212066Y26968D02*
X213956Y26968D01*
X22685Y30118D02*
X57157Y30118D01*
X137970Y30118D02*
X152942Y30118D01*
X165935Y30118D02*
X172942Y30118D01*
X185935Y30118D02*
X188692Y30118D01*
X209693Y30118D02*
X213956Y30118D01*
X4921Y33267D02*
X6377Y33267D01*
X17992Y33267D02*
X54842Y33267D01*
X141120Y33267D02*
X153147Y33267D01*
X165730Y33267D02*
X173147Y33267D01*
X185730Y33267D02*
X193384Y33267D01*
X205000Y33267D02*
X213956Y33267D01*
X4921Y36417D02*
X54842Y36417D01*
X144269Y36417D02*
X156296Y36417D01*
X162581Y36417D02*
X176296Y36417D01*
X182581Y36417D02*
X213956Y36417D01*
X4921Y39566D02*
X10254Y39566D01*
X26123Y39566D02*
X54842Y39566D01*
X147419Y39566D02*
X213956Y39566D01*
X4921Y42716D02*
X8149Y42716D01*
X28228Y42716D02*
X54842Y42716D01*
X150569Y42716D02*
X213956Y42716D01*
X4921Y45866D02*
X8149Y45866D01*
X28228Y45866D02*
X54842Y45866D01*
X151535Y45866D02*
X213956Y45866D01*
X4921Y49015D02*
X54842Y49015D01*
X151535Y49015D02*
X213956Y49015D01*
X4921Y52165D02*
X8149Y52165D01*
X28228Y52165D02*
X54842Y52165D01*
X151535Y52165D02*
X213956Y52165D01*
X4921Y55314D02*
X8149Y55314D01*
X28228Y55314D02*
X54842Y55314D01*
X153062Y55314D02*
X213956Y55314D01*
X4921Y58464D02*
X10648Y58464D01*
X25729Y58464D02*
X54842Y58464D01*
X153897Y58464D02*
X193689Y58464D01*
X200188Y58464D02*
X213956Y58464D01*
X4921Y61614D02*
X8207Y61614D01*
X28170Y61614D02*
X54842Y61614D01*
X153770Y61614D02*
X190540Y61614D01*
X203337Y61614D02*
X213956Y61614D01*
X4921Y64763D02*
X8149Y64763D01*
X28228Y64763D02*
X54842Y64763D01*
X152511Y64763D02*
X190246Y64763D01*
X203631Y64763D02*
X213956Y64763D01*
X4921Y67913D02*
X10097Y67913D01*
X26280Y67913D02*
X54842Y67913D01*
X153897Y67913D02*
X190246Y67913D01*
X204237Y67913D02*
X213956Y67913D01*
X4921Y71062D02*
X54842Y71062D01*
X153897Y71062D02*
X193079Y71062D01*
X207387Y71062D02*
X213956Y71062D01*
X4921Y74212D02*
X54842Y74212D01*
X151535Y74212D02*
X201628Y74212D01*
X210536Y74212D02*
X213956Y74212D01*
X4921Y77362D02*
X54842Y77362D01*
X151535Y77362D02*
X204778Y77362D01*
X212588Y77362D02*
X213956Y77362D01*
X4921Y80511D02*
X9309Y80511D01*
X27068Y80511D02*
X54842Y80511D01*
X149978Y80511D02*
X191642Y80511D01*
X202235Y80511D02*
X206289Y80511D01*
X212588Y80511D02*
X213956Y80511D01*
X4921Y83661D02*
X8149Y83661D01*
X28228Y83661D02*
X54842Y83661D01*
X146829Y83661D02*
X190246Y83661D01*
X203631Y83661D02*
X206289Y83661D01*
X212588Y83661D02*
X213956Y83661D01*
X4921Y86811D02*
X8994Y86811D01*
X27383Y86811D02*
X54842Y86811D01*
X116466Y86811D02*
X190246Y86811D01*
X203631Y86811D02*
X206289Y86811D01*
X212588Y86811D02*
X213956Y86811D01*
X4921Y89960D02*
X9860Y89960D01*
X26516Y89960D02*
X34191Y89960D01*
X39686Y89960D02*
X54842Y89960D01*
X116152Y89960D02*
X191977Y89960D01*
X201900Y89960D02*
X206289Y89960D01*
X212588Y89960D02*
X213956Y89960D01*
X4921Y93110D02*
X8149Y93110D01*
X41466Y93110D02*
X54842Y93110D01*
X109880Y93110D02*
X206289Y93110D01*
X212588Y93110D02*
X213956Y93110D01*
X4921Y96259D02*
X8443Y96259D01*
X41103Y96259D02*
X54842Y96259D01*
X106730Y96259D02*
X206289Y96259D01*
X212588Y96259D02*
X213956Y96259D01*
X4921Y99409D02*
X10412Y99409D01*
X25965Y99409D02*
X54842Y99409D01*
X98555Y99409D02*
X206289Y99409D01*
X212588Y99409D02*
X213956Y99409D01*
X4921Y102559D02*
X8149Y102559D01*
X41034Y102559D02*
X54842Y102559D01*
X100265Y102559D02*
X107273Y102559D01*
X116604Y102559D02*
X204994Y102559D01*
X212588Y102559D02*
X213956Y102559D01*
X4921Y105708D02*
X8149Y105708D01*
X41466Y105708D02*
X54066Y105708D01*
X100265Y105708D02*
X107273Y105708D01*
X116604Y105708D02*
X201845Y105708D01*
X210753Y105708D02*
X213956Y105708D01*
X4921Y108858D02*
X34122Y108858D01*
X39755Y108858D02*
X50917Y108858D01*
X97925Y108858D02*
X107273Y108858D01*
X116604Y108858D02*
X198695Y108858D01*
X207603Y108858D02*
X213956Y108858D01*
X4921Y112007D02*
X8149Y112007D01*
X204454Y112007D02*
X213956Y112007D01*
X206598Y115157D02*
X213956Y115157D01*
X210375Y118307D02*
X213956Y118307D01*
X212461Y121456D02*
X213956Y121456D01*
X213601Y124606D02*
X213956Y124606D01*
X8070Y33868D02*
X8070Y113769D01*
X11220Y34452D02*
X11220Y39153D01*
X11220Y48484D02*
X11220Y49153D01*
X11220Y58484D02*
X11220Y59153D01*
X11220Y68484D02*
X11220Y79153D01*
X11220Y88484D02*
X11220Y89153D01*
X11220Y98484D02*
X11220Y99153D01*
X11220Y108484D02*
X11220Y109153D01*
X14370Y4921D02*
X14370Y5079D01*
X14370Y34290D02*
X14370Y39153D01*
X14370Y48484D02*
X14370Y49153D01*
X14370Y58484D02*
X14370Y59153D01*
X14370Y68484D02*
X14370Y79153D01*
X14370Y88484D02*
X14370Y89153D01*
X14370Y98484D02*
X14370Y99153D01*
X14370Y108484D02*
X14370Y109153D01*
X17519Y4921D02*
X17519Y5886D01*
X17519Y33483D02*
X17519Y39153D01*
X17519Y48484D02*
X17519Y49153D01*
X17519Y58484D02*
X17519Y59153D01*
X17519Y68484D02*
X17519Y79153D01*
X17519Y88484D02*
X17519Y89153D01*
X17519Y98484D02*
X17519Y99153D01*
X17519Y108484D02*
X17519Y109153D01*
X20669Y4921D02*
X20669Y7582D01*
X20669Y31787D02*
X20669Y39153D01*
X20669Y48484D02*
X20669Y49153D01*
X20669Y58484D02*
X20669Y59153D01*
X20669Y68484D02*
X20669Y79153D01*
X20669Y88484D02*
X20669Y89153D01*
X20669Y98484D02*
X20669Y99153D01*
X20669Y108484D02*
X20669Y109153D01*
X23818Y4921D02*
X23818Y10559D01*
X23818Y28810D02*
X23818Y39153D01*
X23818Y48484D02*
X23818Y49153D01*
X23818Y58484D02*
X23818Y59153D01*
X23818Y68484D02*
X23818Y79153D01*
X23818Y88484D02*
X23818Y89153D01*
X23818Y98484D02*
X23818Y99153D01*
X23818Y108484D02*
X23818Y109153D01*
X26968Y4921D02*
X26968Y40412D01*
X26968Y47225D02*
X26968Y50412D01*
X26968Y57225D02*
X26968Y60412D01*
X26968Y67225D02*
X26968Y80412D01*
X26968Y87225D02*
X26968Y90412D01*
X26968Y97225D02*
X26968Y100412D01*
X26968Y107225D02*
X26968Y110412D01*
X30118Y4921D02*
X30118Y90472D01*
X30118Y97165D02*
X30118Y100472D01*
X30118Y107165D02*
X30118Y110472D01*
X33267Y4921D02*
X33267Y90472D01*
X33267Y97165D02*
X33267Y100472D01*
X33267Y108003D02*
X33267Y110472D01*
X36417Y4921D02*
X36417Y89291D01*
X36417Y98346D02*
X36417Y100472D01*
X36417Y109596D02*
X36417Y110472D01*
X39566Y4921D02*
X39566Y89841D01*
X39566Y97796D02*
X39566Y101091D01*
X39566Y109046D02*
X39566Y110472D01*
X42716Y4921D02*
X42716Y110472D01*
X45866Y4921D02*
X45866Y110472D01*
X49015Y4921D02*
X49015Y110472D01*
X52165Y4921D02*
X52165Y107609D01*
X55314Y4921D02*
X55314Y31960D01*
X58464Y4921D02*
X58464Y28810D01*
X61614Y4921D02*
X61614Y25661D01*
X64763Y4921D02*
X64763Y22511D01*
X67913Y4921D02*
X67913Y19361D01*
X71062Y4921D02*
X71062Y16212D01*
X74212Y4921D02*
X74212Y13062D01*
X77362Y4921D02*
X77362Y11722D01*
X80511Y4921D02*
X80511Y11722D01*
X83661Y4921D02*
X83661Y11722D01*
X86811Y4921D02*
X86811Y11722D01*
X89960Y4921D02*
X89960Y11722D01*
X93110Y4921D02*
X93110Y11722D01*
X96259Y4921D02*
X96259Y11722D01*
X99409Y4921D02*
X99409Y11722D01*
X99409Y97165D02*
X99409Y100263D01*
X99409Y107374D02*
X99409Y110669D01*
X102559Y4921D02*
X102559Y11722D01*
X102559Y97165D02*
X102559Y110669D01*
X105708Y4921D02*
X105708Y11722D01*
X105708Y97165D02*
X105708Y110669D01*
X108858Y4921D02*
X108858Y11722D01*
X108858Y94132D02*
X108858Y101203D01*
X112007Y4921D02*
X112007Y11722D01*
X112007Y92096D02*
X112007Y101203D01*
X115157Y4921D02*
X115157Y11722D01*
X115157Y90955D02*
X115157Y101203D01*
X118307Y4921D02*
X118307Y11722D01*
X118307Y84665D02*
X118307Y110669D01*
X121456Y4921D02*
X121456Y13604D01*
X121456Y84665D02*
X121456Y110669D01*
X124606Y4921D02*
X124606Y16753D01*
X124606Y84665D02*
X124606Y110669D01*
X127755Y4921D02*
X127755Y19903D01*
X127755Y84665D02*
X127755Y110669D01*
X130905Y4921D02*
X130905Y23052D01*
X130905Y84665D02*
X130905Y110669D01*
X134055Y4921D02*
X134055Y26202D01*
X134055Y84665D02*
X134055Y110669D01*
X137204Y4921D02*
X137204Y29352D01*
X137204Y84665D02*
X137204Y110669D01*
X140354Y4921D02*
X140354Y32501D01*
X140354Y84665D02*
X140354Y110669D01*
X143503Y4921D02*
X143503Y35651D01*
X143503Y84665D02*
X143503Y110669D01*
X146653Y4921D02*
X146653Y38800D01*
X146653Y83836D02*
X146653Y110669D01*
X149803Y4921D02*
X149803Y41950D01*
X149803Y80687D02*
X149803Y110669D01*
X152952Y4921D02*
X152952Y27064D01*
X152952Y33073D02*
X152952Y55205D01*
X152952Y62432D02*
X152952Y65205D01*
X152952Y72432D02*
X152952Y110669D01*
X156102Y4921D02*
X156102Y23914D01*
X156102Y36223D02*
X156102Y110669D01*
X159251Y4921D02*
X159251Y23572D01*
X159251Y36564D02*
X159251Y110669D01*
X162401Y4921D02*
X162401Y23572D01*
X162401Y36564D02*
X162401Y110669D01*
X165551Y4921D02*
X165551Y26690D01*
X165551Y33447D02*
X165551Y110669D01*
X168700Y4921D02*
X168700Y110669D01*
X171850Y4921D02*
X171850Y110669D01*
X174999Y4921D02*
X174999Y25017D01*
X174999Y35120D02*
X174999Y110669D01*
X178149Y4921D02*
X178149Y23572D01*
X178149Y36564D02*
X178149Y110669D01*
X181299Y4921D02*
X181299Y23572D01*
X181299Y36564D02*
X181299Y110669D01*
X184448Y4921D02*
X184448Y18463D01*
X184448Y20907D02*
X184448Y25587D01*
X184448Y34549D02*
X184448Y110669D01*
X187598Y4921D02*
X187598Y10514D01*
X187598Y28855D02*
X187598Y110669D01*
X190748Y4921D02*
X190748Y7557D01*
X190748Y31812D02*
X190748Y61406D01*
X190748Y68731D02*
X190748Y81406D01*
X190748Y88731D02*
X190748Y110669D01*
X193897Y4921D02*
X193897Y5868D01*
X193897Y33501D02*
X193897Y58375D01*
X193897Y71761D02*
X193897Y78375D01*
X193897Y91761D02*
X193897Y110669D01*
X197047Y4921D02*
X197047Y5073D01*
X197047Y34296D02*
X197047Y58375D01*
X197047Y71761D02*
X197047Y78375D01*
X197047Y91761D02*
X197047Y110506D01*
X200196Y34452D02*
X200196Y58473D01*
X200196Y72780D02*
X200196Y78473D01*
X200196Y91664D02*
X200196Y107356D01*
X203346Y33856D02*
X203346Y61622D01*
X203346Y75930D02*
X203346Y81622D01*
X203346Y88515D02*
X203346Y104207D01*
X203346Y113115D02*
X203346Y113780D01*
X206496Y32546D02*
X206496Y70171D01*
X206496Y109966D02*
X206496Y115091D01*
X209645Y30168D02*
X209645Y73321D01*
X209645Y106816D02*
X209645Y117469D01*
X212795Y25449D02*
X212795Y122187D01*
X68592Y37432D02*
X68592Y67705D01*
X78052Y77165D01*
X80599Y77165D01*
X81918Y78484D01*
X96959Y78484D01*
X99478Y75965D01*
X99478Y71671D01*
X96959Y69153D01*
X81918Y69153D01*
X80712Y70359D01*
X75285Y64932D01*
X75285Y40205D01*
X85825Y29665D01*
X110552Y29665D01*
X124842Y43955D01*
X124842Y53788D01*
X123897Y54733D01*
X123897Y54378D01*
X122629Y53110D01*
X113748Y53110D01*
X112480Y54378D01*
X112480Y63259D01*
X113748Y64527D01*
X114103Y64527D01*
X112480Y66150D01*
X112480Y71487D01*
X115520Y74527D01*
X120857Y74527D01*
X123188Y72196D01*
X125520Y74527D01*
X130857Y74527D01*
X133188Y72196D01*
X135520Y74527D01*
X140857Y74527D01*
X143188Y72196D01*
X144842Y73849D01*
X144842Y76182D01*
X143052Y77972D01*
X115825Y77972D01*
X98325Y60472D01*
X98278Y60472D01*
X96959Y59153D01*
X81918Y59153D01*
X79399Y61671D01*
X79399Y65965D01*
X81918Y68484D01*
X96871Y68484D01*
X111428Y83041D01*
X109860Y83041D01*
X107411Y85490D01*
X107411Y86113D01*
X103052Y90472D01*
X98278Y90472D01*
X96959Y89153D01*
X81918Y89153D01*
X79399Y91671D01*
X79399Y95965D01*
X81582Y98148D01*
X78612Y101119D01*
X78612Y106518D01*
X81582Y109488D01*
X79399Y111671D01*
X79399Y115965D01*
X81918Y118484D01*
X96959Y118484D01*
X98475Y116968D01*
X107273Y116968D01*
X107273Y117665D01*
X108542Y118934D01*
X115335Y118934D01*
X116604Y117665D01*
X116604Y116968D01*
X189318Y116968D01*
X188723Y117483D01*
X187340Y119080D01*
X186198Y120857D01*
X185320Y122778D01*
X184725Y124805D01*
X184424Y126898D01*
X184426Y127294D01*
X184422Y127309D01*
X184429Y127952D01*
X184422Y128596D01*
X184426Y128610D01*
X184424Y129006D01*
X184725Y131099D01*
X185320Y133126D01*
X186198Y135048D01*
X187340Y136825D01*
X188723Y138421D01*
X190320Y139805D01*
X192097Y140947D01*
X194018Y141824D01*
X196045Y142420D01*
X198107Y142716D01*
X13270Y142716D01*
X15332Y142420D01*
X17359Y141824D01*
X19280Y140947D01*
X21057Y139805D01*
X22654Y138421D01*
X24037Y136825D01*
X25179Y135048D01*
X26057Y133126D01*
X26652Y131099D01*
X26953Y129006D01*
X26951Y128610D01*
X26955Y128596D01*
X26948Y127952D01*
X26955Y127309D01*
X26951Y127294D01*
X26953Y126898D01*
X26652Y124805D01*
X26057Y122778D01*
X25179Y120857D01*
X24037Y119080D01*
X23521Y118484D01*
X25709Y118484D01*
X27028Y117165D01*
X52075Y117165D01*
X61535Y107705D01*
X61535Y73147D01*
X75552Y87165D01*
X80599Y87165D01*
X81918Y88484D01*
X96959Y88484D01*
X99478Y85965D01*
X99478Y81671D01*
X96959Y79153D01*
X81918Y79153D01*
X80599Y80472D01*
X78325Y80472D01*
X67785Y69932D01*
X67785Y37705D01*
X82075Y23415D01*
X82609Y23415D01*
X68592Y37432D01*
X81918Y39153D02*
X79399Y41671D01*
X79399Y45965D01*
X81918Y48484D01*
X96959Y48484D01*
X99478Y45965D01*
X99478Y41671D01*
X96959Y39153D01*
X81918Y39153D01*
X81918Y49153D02*
X79399Y51671D01*
X79399Y55965D01*
X81918Y58484D01*
X96959Y58484D01*
X99478Y55965D01*
X99478Y51671D01*
X96959Y49153D01*
X81918Y49153D01*
X198107Y4921D02*
X196045Y5217D01*
X194018Y5812D01*
X192097Y6690D01*
X190320Y7832D01*
X188723Y9215D01*
X187340Y10812D01*
X186198Y12589D01*
X185320Y14510D01*
X184725Y16537D01*
X184424Y18630D01*
X184426Y19026D01*
X184422Y19041D01*
X184429Y19685D01*
X184422Y20328D01*
X184426Y20343D01*
X184424Y20739D01*
X184725Y22832D01*
X185320Y24859D01*
X186198Y26780D01*
X187340Y28557D01*
X188723Y30154D01*
X190320Y31537D01*
X192097Y32679D01*
X194018Y33557D01*
X196045Y34152D01*
X198136Y34452D01*
X200249Y34452D01*
X202340Y34152D01*
X204366Y33557D01*
X206288Y32679D01*
X208065Y31537D01*
X209662Y30154D01*
X211045Y28557D01*
X212187Y26780D01*
X213065Y24859D01*
X213660Y22832D01*
X213956Y20770D01*
X213956Y126867D01*
X213660Y124805D01*
X213065Y122778D01*
X212187Y120857D01*
X211045Y119080D01*
X209662Y117483D01*
X208065Y116100D01*
X206288Y114958D01*
X204366Y114080D01*
X202832Y113629D01*
X212588Y103873D01*
X212588Y76264D01*
X203631Y67307D01*
X203631Y61908D01*
X200099Y58375D01*
X193778Y58375D01*
X190246Y61908D01*
X190246Y68229D01*
X193778Y71761D01*
X199177Y71761D01*
X206289Y78873D01*
X206289Y101264D01*
X196884Y110669D01*
X116401Y110669D01*
X115801Y110068D01*
X116604Y109265D01*
X116604Y102471D01*
X115335Y101203D01*
X108542Y101203D01*
X107273Y102471D01*
X107273Y109265D01*
X108076Y110068D01*
X107476Y110669D01*
X98475Y110669D01*
X97295Y109488D01*
X100265Y106518D01*
X100265Y101119D01*
X97295Y98148D01*
X98278Y97165D01*
X105825Y97165D01*
X110894Y92096D01*
X114016Y92096D01*
X116466Y89646D01*
X116466Y85490D01*
X115641Y84665D01*
X145825Y84665D01*
X151535Y78955D01*
X151535Y73849D01*
X153897Y71487D01*
X153897Y66150D01*
X151566Y63818D01*
X153897Y61487D01*
X153897Y56150D01*
X151535Y53788D01*
X151535Y43682D01*
X119575Y11722D01*
X75552Y11722D01*
X54842Y32432D01*
X54842Y104932D01*
X49302Y110472D01*
X27028Y110472D01*
X25709Y109153D01*
X10668Y109153D01*
X8149Y111671D01*
X8149Y113746D01*
X7010Y114080D01*
X5089Y114958D01*
X4921Y115066D01*
X4921Y32571D01*
X5089Y32679D01*
X7010Y33557D01*
X9037Y34152D01*
X11128Y34452D01*
X13241Y34452D01*
X15332Y34152D01*
X17359Y33557D01*
X19280Y32679D01*
X21057Y31537D01*
X22654Y30154D01*
X24037Y28557D01*
X25179Y26780D01*
X26057Y24859D01*
X26652Y22832D01*
X26953Y20739D01*
X26951Y20343D01*
X26955Y20328D01*
X26948Y19685D01*
X26955Y19041D01*
X26951Y19026D01*
X26953Y18630D01*
X26652Y16537D01*
X26057Y14511D01*
X25179Y12589D01*
X24037Y10812D01*
X22654Y9215D01*
X21057Y7832D01*
X19280Y6690D01*
X17359Y5812D01*
X15332Y5217D01*
X13270Y4921D01*
X198107Y4921D01*
X156444Y23572D02*
X152942Y27074D01*
X152942Y33063D01*
X156444Y36564D01*
X162433Y36564D01*
X165935Y33063D01*
X165935Y27074D01*
X162433Y23572D01*
X156444Y23572D01*
X176444Y23572D02*
X172942Y27074D01*
X172942Y33063D01*
X176444Y36564D01*
X182433Y36564D01*
X185935Y33063D01*
X185935Y27074D01*
X182433Y23572D01*
X176444Y23572D01*
X10668Y39153D02*
X8149Y41671D01*
X8149Y45965D01*
X10668Y48484D01*
X25709Y48484D01*
X28228Y45965D01*
X28228Y41671D01*
X25709Y39153D01*
X10668Y39153D01*
X10668Y49153D02*
X8149Y51671D01*
X8149Y55965D01*
X10668Y58484D01*
X25709Y58484D01*
X28228Y55965D01*
X28228Y51671D01*
X25709Y49153D01*
X10668Y49153D01*
X10668Y59153D02*
X8149Y61671D01*
X8149Y65965D01*
X10668Y68484D01*
X25709Y68484D01*
X28228Y65965D01*
X28228Y61671D01*
X25709Y59153D01*
X10668Y59153D01*
X10668Y79153D02*
X8149Y81671D01*
X8149Y85965D01*
X10668Y88484D01*
X25709Y88484D01*
X28228Y85965D01*
X28228Y81671D01*
X25709Y79153D01*
X10668Y79153D01*
X193778Y78375D02*
X190246Y81908D01*
X190246Y88229D01*
X193778Y91761D01*
X200099Y91761D01*
X203631Y88229D01*
X203631Y81908D01*
X200099Y78375D01*
X193778Y78375D01*
X10668Y89153D02*
X8149Y91671D01*
X8149Y95965D01*
X10668Y98484D01*
X25709Y98484D01*
X27028Y97165D01*
X33679Y97165D01*
X34860Y98346D01*
X39016Y98346D01*
X41466Y95896D01*
X41466Y91740D01*
X39016Y89291D01*
X34860Y89291D01*
X33679Y90472D01*
X27028Y90472D01*
X25709Y89153D01*
X10668Y89153D01*
X10668Y99153D02*
X8149Y101671D01*
X8149Y105965D01*
X10668Y108484D01*
X25709Y108484D01*
X27028Y107165D01*
X32429Y107165D01*
X34860Y109596D01*
X39016Y109596D01*
X41466Y107146D01*
X41466Y102990D01*
X39016Y100541D01*
X37144Y100541D01*
X37075Y100472D01*
X27028Y100472D01*
X25709Y99153D01*
X10668Y99153D01*
X111488Y113818D02*
X89438Y113818D01*
X111488Y113818D02*
X111938Y114268D01*
X111488Y113818D02*
X198188Y113818D01*
X209438Y102568D01*
X209438Y77568D01*
X196938Y65068D01*
G54D22*
X35688Y103818D02*
X18188Y103818D01*
X35688Y103818D02*
X36938Y105068D01*
X148188Y58818D02*
X148188Y45068D01*
X118188Y15068D01*
X76938Y15068D01*
X58188Y33818D01*
X58188Y106318D01*
X50688Y113818D01*
X18188Y113818D01*
X138188Y58818D02*
X138188Y45068D01*
X113188Y20068D01*
X80688Y20068D01*
X64438Y36318D01*
X64438Y71318D01*
X76938Y83818D01*
X89438Y83818D01*
X36938Y93818D02*
X18188Y93818D01*
X128188Y58818D02*
X128188Y42568D01*
X111938Y26318D01*
X84438Y26318D01*
X71938Y38818D01*
X71938Y66318D01*
X79438Y73818D01*
X89438Y73818D01*
X148188Y68818D02*
X148188Y77568D01*
X144438Y81318D01*
X114438Y81318D01*
X96938Y63818D01*
X89438Y63818D01*
X110688Y87568D02*
X104438Y93818D01*
X110688Y87568D02*
X111938Y87568D01*
X104438Y93818D02*
X89438Y93818D01*
G54D27*
X111938Y105868D03*
X111938Y114268D03*
G54D28*
X118188Y58818D03*
G54D29*
X36938Y105068D03*
X36938Y93818D03*
X111938Y87568D03*
G54D30*
X118188Y68818D03*
X128188Y58818D03*
X128188Y68818D03*
X138188Y58818D03*
X138188Y68818D03*
X148188Y58818D03*
X148188Y68818D03*
G54D31*
X179438Y30068D03*
X159438Y30068D03*
G54D32*
X196938Y65068D03*
X196938Y85068D03*
G54D33*
X18188Y93818D03*
X18188Y103818D03*
X18188Y113818D03*
X18188Y83818D03*
X18188Y63818D03*
X18188Y53818D03*
X18188Y43818D03*
X89438Y93818D03*
X89438Y113818D03*
X89438Y83818D03*
X89438Y73818D03*
X89438Y63818D03*
X89438Y53818D03*
X89438Y43818D03*
G54D34*
X89438Y103818D03*
G36*
X152895Y28756D02*
X159438Y28756D01*
X159438Y31381D01*
X152895Y31381D01*
X152895Y28756D01*
G37*
G36*
X159438Y28756D02*
X165982Y28756D01*
X165982Y31381D01*
X159438Y31381D01*
X159438Y28756D01*
G37*
G36*
X158126Y23525D02*
X160751Y23525D01*
X160751Y30068D01*
X158126Y30068D01*
X158126Y23525D01*
G37*
G36*
X158126Y30068D02*
X160751Y30068D01*
X160751Y36612D01*
X158126Y36612D01*
X158126Y30068D01*
G37*
G36*
X112433Y57769D02*
X118188Y57769D01*
X118188Y59868D01*
X112433Y59868D01*
X112433Y57769D01*
G37*
G36*
X117139Y53062D02*
X119238Y53062D01*
X119238Y58818D01*
X117139Y58818D01*
X117139Y53062D01*
G37*
M02*
